<svg version="1.1" viewBox="0.0 0.0 1264.0 419.0" fill="none" stroke="none" stroke-linecap="square" stroke-miterlimit="10" width="1264" height="419" xmlns:xlink="http://www.w3.org/1999/xlink" xmlns="http://www.w3.org/2000/svg"><path fill="#ffffff" d="M0 0L1264.0 0L1264.0 419.0L0 419.0L0 0Z" fill-rule="nonzero"/><path stroke="#333333" stroke-width="1.0" stroke-linecap="butt" d="M79.5 378.5L1243.5 378.5" fill-rule="nonzero"/><path stroke="#cccccc" stroke-width="1.0" stroke-linecap="butt" d="M79.5 333.5L1243.5 333.5" fill-rule="nonzero"/><path stroke="#cccccc" stroke-width="1.0" stroke-linecap="butt" d="M79.5 288.5L1243.5 288.5" fill-rule="nonzero"/><path stroke="#cccccc" stroke-width="1.0" stroke-linecap="butt" d="M79.5 244.5L1243.5 244.5" fill-rule="nonzero"/><path stroke="#cccccc" stroke-width="1.0" stroke-linecap="butt" d="M79.5 199.5L1243.5 199.5" fill-rule="nonzero"/><path stroke="#cccccc" stroke-width="1.0" stroke-linecap="butt" d="M79.5 155.5L1243.5 155.5" fill-rule="nonzero"/><path stroke="#cccccc" stroke-width="1.0" stroke-linecap="butt" d="M79.5 110.5L1243.5 110.5" fill-rule="nonzero"/><path stroke="#cccccc" stroke-width="1.0" stroke-linecap="butt" d="M79.5 65.5L1243.5 65.5" fill-rule="nonzero"/><path stroke="#000000" stroke-width="1.0" stroke-linecap="butt" d="M1243.5 378.5L79.5 378.5" fill-rule="nonzero"/><path stroke="#000000" stroke-width="1.0" stroke-linecap="butt" d="M79.5 378.5L79.5 65.5" fill-rule="nonzero"/><clipPath id="id_0"><path d="M79.95 65.916664L1243.05 65.916664L1243.05 378.05L79.95 378.05L79.95 65.916664Z" clip-rule="nonzero"/></clipPath><path stroke="#4285f4" stroke-width="2.0" stroke-linecap="butt" clip-path="url(#id_0)" d="M102.80568 360.03546L102.80568 369.2657" fill-rule="nonzero"/><path stroke="#4285f4" stroke-width="2.0" stroke-linecap="butt" clip-path="url(#id_0)" d="M102.80568 370.4696L102.80568 366.54565" fill-rule="nonzero"/><path fill="#4285f4" clip-path="url(#id_0)" d="M90.801094 365.54565L114.810265 365.54565L114.810265 370.2657L90.801094 370.2657L90.801094 365.54565Z" fill-rule="nonzero"/><path stroke="#4285f4" stroke-width="2.0" stroke-linecap="butt" clip-path="url(#id_0)" d="M136.66594 346.6583L136.66594 347.1265" fill-rule="nonzero"/><path stroke="#4285f4" stroke-width="2.0" stroke-linecap="butt" clip-path="url(#id_0)" d="M136.66594 347.28256L136.66594 346.97043" fill-rule="nonzero"/><path fill="#4285f4" clip-path="url(#id_0)" d="M124.661354 345.97043L148.67053 345.97043L148.67053 348.1265L124.661354 348.1265L124.661354 345.97043Z" fill-rule="nonzero"/><path stroke="#4285f4" stroke-width="2.0" stroke-linecap="butt" clip-path="url(#id_0)" d="M170.5262 284.76672L170.5262 288.5346" fill-rule="nonzero"/><path stroke="#4285f4" stroke-width="2.0" stroke-linecap="butt" clip-path="url(#id_0)" d="M170.5262 289.67166L170.5262 287.35297" fill-rule="nonzero"/><path fill="#4285f4" clip-path="url(#id_0)" d="M158.52162 286.35297L182.53079 286.35297L182.53079 289.5346L158.52162 289.5346L158.52162 286.35297Z" fill-rule="nonzero"/><path stroke="#4285f4" stroke-width="2.0" stroke-linecap="butt" clip-path="url(#id_0)" d="M204.38646 262.64984L204.38646 262.9174" fill-rule="nonzero"/><path stroke="#4285f4" stroke-width="2.0" stroke-linecap="butt" clip-path="url(#id_0)" d="M204.38646 263.00656L204.38646 262.82822" fill-rule="nonzero"/><path fill="#4285f4" clip-path="url(#id_0)" d="M192.38188 261.82822L216.39105 261.82822L216.39105 263.9174L192.38188 263.9174L192.38188 261.82822Z" fill-rule="nonzero"/><path stroke="#4285f4" stroke-width="2.0" stroke-linecap="butt" clip-path="url(#id_0)" d="M238.24672 163.92653L238.24672 215.47313" fill-rule="nonzero"/><path stroke="#4285f4" stroke-width="2.0" stroke-linecap="butt" clip-path="url(#id_0)" d="M238.24672 232.8634L238.24672 187.20276" fill-rule="nonzero"/><path fill="#4285f4" clip-path="url(#id_0)" d="M226.24214 186.20276L250.25131 186.20276L250.25131 216.47311L226.24214 216.47311L226.24214 186.20276Z" fill-rule="nonzero"/><path stroke="#4285f4" stroke-width="2.0" stroke-linecap="butt" clip-path="url(#id_0)" d="M272.107 142.70146L272.107 203.29993" fill-rule="nonzero"/><path stroke="#4285f4" stroke-width="2.0" stroke-linecap="butt" clip-path="url(#id_0)" d="M272.107 204.59305L272.107 202.4527" fill-rule="nonzero"/><path fill="#4285f4" clip-path="url(#id_0)" d="M260.10242 201.4527L284.11157 201.4527L284.11157 204.29991L260.10242 204.29991L260.10242 201.4527Z" fill-rule="nonzero"/><path stroke="#4285f4" stroke-width="2.0" stroke-linecap="butt" clip-path="url(#id_0)" d="M305.96725 167.7613L305.96725 179.62238" fill-rule="nonzero"/><path stroke="#4285f4" stroke-width="2.0" stroke-linecap="butt" clip-path="url(#id_0)" d="M305.96725 192.10771L305.96725 174.44989" fill-rule="nonzero"/><path fill="#4285f4" clip-path="url(#id_0)" d="M293.96268 173.44989L317.97186 173.44989L317.97186 180.62239L293.96268 180.62239L293.96268 173.44989Z" fill-rule="nonzero"/><path stroke="#4285f4" stroke-width="2.0" stroke-linecap="butt" clip-path="url(#id_0)" d="M339.8275 122.63575L339.8275 123.63904" fill-rule="nonzero"/><path stroke="#4285f4" stroke-width="2.0" stroke-linecap="butt" clip-path="url(#id_0)" d="M339.8275 123.973465L339.8275 123.30461" fill-rule="nonzero"/><path fill="#4285f4" clip-path="url(#id_0)" d="M327.82294 122.30461L351.8321 122.30461L351.8321 124.63904L327.82294 124.63904L327.82294 122.30461Z" fill-rule="nonzero"/><path stroke="#4285f4" stroke-width="2.0" stroke-linecap="butt" clip-path="url(#id_0)" d="M373.68777 103.81857L373.68777 116.66063" fill-rule="nonzero"/><path stroke="#4285f4" stroke-width="2.0" stroke-linecap="butt" clip-path="url(#id_0)" d="M373.68777 118.444244L373.68777 115.72423" fill-rule="nonzero"/><path fill="#4285f4" clip-path="url(#id_0)" d="M361.6832 114.72423L385.69238 114.72423L385.69238 117.66063L361.6832 117.66063L361.6832 114.72423Z" fill-rule="nonzero"/><path stroke="#4285f4" stroke-width="2.0" stroke-linecap="butt" clip-path="url(#id_0)" d="M407.54803 79.47217L407.54803 111.80027" fill-rule="nonzero"/><path stroke="#4285f4" stroke-width="2.0" stroke-linecap="butt" clip-path="url(#id_0)" d="M407.54803 112.91503L407.54803 111.13141" fill-rule="nonzero"/><path fill="#4285f4" clip-path="url(#id_0)" d="M395.54346 110.13141L419.5526 110.13141L419.5526 112.80026L395.54346 112.80026L395.54346 110.13141Z" fill-rule="nonzero"/><path stroke="#4285f4" stroke-width="2.0" stroke-linecap="butt" clip-path="url(#id_0)" d="M441.4083 100.518875L441.4083 111.48814" fill-rule="nonzero"/><path stroke="#4285f4" stroke-width="2.0" stroke-linecap="butt" clip-path="url(#id_0)" d="M441.4083 112.736664L441.4083 111.04223" fill-rule="nonzero"/><path fill="#4285f4" clip-path="url(#id_0)" d="M429.40372 110.04223L453.4129 110.04223L453.4129 112.48814L429.40372 112.48814L429.40372 110.04223Z" fill-rule="nonzero"/><path stroke="#4285f4" stroke-width="2.0" stroke-linecap="butt" clip-path="url(#id_0)" d="M475.26855 108.634346L475.26855 109.70451" fill-rule="nonzero"/><path stroke="#4285f4" stroke-width="2.0" stroke-linecap="butt" clip-path="url(#id_0)" d="M475.26855 109.70451L475.26855 109.48156" fill-rule="nonzero"/><path fill="#4285f4" clip-path="url(#id_0)" d="M463.26398 108.48156L487.27313 108.48156L487.27313 110.70451L463.26398 110.70451L463.26398 108.48156Z" fill-rule="nonzero"/><path stroke="#4285f4" stroke-width="2.0" stroke-linecap="butt" clip-path="url(#id_0)" d="M509.1288 104.08611L509.1288 107.697945" fill-rule="nonzero"/><path stroke="#4285f4" stroke-width="2.0" stroke-linecap="butt" clip-path="url(#id_0)" d="M509.1288 108.991066L509.1288 106.9399" fill-rule="nonzero"/><path fill="#4285f4" clip-path="url(#id_0)" d="M497.12424 105.9399L521.1334 105.9399L521.1334 108.697945L497.12424 108.697945L497.12424 105.9399Z" fill-rule="nonzero"/><path stroke="#4285f4" stroke-width="2.0" stroke-linecap="butt" clip-path="url(#id_0)" d="M542.9891 100.251335L542.9891 105.60219" fill-rule="nonzero"/><path stroke="#4285f4" stroke-width="2.0" stroke-linecap="butt" clip-path="url(#id_0)" d="M542.9891 108.54516L542.9891 103.41726" fill-rule="nonzero"/><path fill="#4285f4" clip-path="url(#id_0)" d="M530.9845 102.41726L554.99365 102.41726L554.99365 106.602196L530.9845 106.602196L530.9845 102.41726Z" fill-rule="nonzero"/><path stroke="#4285f4" stroke-width="2.0" stroke-linecap="butt" clip-path="url(#id_0)" d="M576.84937 106.67236L576.84937 107.54188" fill-rule="nonzero"/><path stroke="#4285f4" stroke-width="2.0" stroke-linecap="butt" clip-path="url(#id_0)" d="M576.84937 108.27762L576.84937 107.20745" fill-rule="nonzero"/><path fill="#4285f4" clip-path="url(#id_0)" d="M564.8448 106.20745L588.85394 106.20745L588.85394 108.54188L564.8448 108.54188L564.8448 106.20745Z" fill-rule="nonzero"/><path stroke="#4285f4" stroke-width="2.0" stroke-linecap="butt" clip-path="url(#id_0)" d="M610.7096 100.251335L610.7096 105.42383" fill-rule="nonzero"/><path stroke="#4285f4" stroke-width="2.0" stroke-linecap="butt" clip-path="url(#id_0)" d="M610.7096 106.85072L610.7096 104.71038" fill-rule="nonzero"/><path fill="#4285f4" clip-path="url(#id_0)" d="M598.705 103.71038L622.7142 103.71038L622.7142 106.42383L598.705 106.42383L598.705 103.71038Z" fill-rule="nonzero"/><path stroke="#4285f4" stroke-width="2.0" stroke-linecap="butt" clip-path="url(#id_0)" d="M644.5699 97.397545L644.5699 101.27692" fill-rule="nonzero"/><path stroke="#4285f4" stroke-width="2.0" stroke-linecap="butt" clip-path="url(#id_0)" d="M644.5699 105.869736L644.5699 100.340515" fill-rule="nonzero"/><path fill="#4285f4" clip-path="url(#id_0)" d="M632.5653 99.340515L656.57446 99.340515L656.57446 102.27692L632.5653 102.27692L632.5653 99.340515Z" fill-rule="nonzero"/><path stroke="#4285f4" stroke-width="2.0" stroke-linecap="butt" clip-path="url(#id_0)" d="M678.4301 103.64021L678.4301 105.04481" fill-rule="nonzero"/><path stroke="#4285f4" stroke-width="2.0" stroke-linecap="butt" clip-path="url(#id_0)" d="M678.4301 105.51301L678.4301 104.57661" fill-rule="nonzero"/><path fill="#4285f4" clip-path="url(#id_0)" d="M666.42554 103.57661L690.4347 103.57661L690.4347 106.04481L666.42554 106.04481L666.42554 103.57661Z" fill-rule="nonzero"/><path stroke="#4285f4" stroke-width="2.0" stroke-linecap="butt" clip-path="url(#id_0)" d="M712.2904 96.86246L712.2904 104.04153" fill-rule="nonzero"/><path stroke="#4285f4" stroke-width="2.0" stroke-linecap="butt" clip-path="url(#id_0)" d="M712.2904 104.97792L712.2904 100.02838" fill-rule="nonzero"/><path fill="#4285f4" clip-path="url(#id_0)" d="M700.2858 99.02838L724.295 99.02838L724.295 105.04153L700.2858 105.04153L700.2858 99.02838Z" fill-rule="nonzero"/><path stroke="#4285f4" stroke-width="2.0" stroke-linecap="butt" clip-path="url(#id_0)" d="M746.15063 98.64607L746.15063 101.58905" fill-rule="nonzero"/><path stroke="#4285f4" stroke-width="2.0" stroke-linecap="butt" clip-path="url(#id_0)" d="M746.15063 102.03495L746.15063 101.05396" fill-rule="nonzero"/><path fill="#4285f4" clip-path="url(#id_0)" d="M734.14606 100.05396L758.1552 100.05396L758.1552 102.58905L734.14606 102.58905L734.14606 100.05396Z" fill-rule="nonzero"/><path stroke="#4285f4" stroke-width="2.0" stroke-linecap="butt" clip-path="url(#id_0)" d="M780.0109 96.41655L780.0109 98.69067" fill-rule="nonzero"/><path stroke="#4285f4" stroke-width="2.0" stroke-linecap="butt" clip-path="url(#id_0)" d="M780.0109 99.89461L780.0109 97.843445" fill-rule="nonzero"/><path fill="#4285f4" clip-path="url(#id_0)" d="M768.00635 96.843445L792.0155 96.843445L792.0155 99.69067L768.00635 99.69067L768.00635 96.843445Z" fill-rule="nonzero"/><path stroke="#4285f4" stroke-width="2.0" stroke-linecap="butt" clip-path="url(#id_0)" d="M813.87115 95.16802L813.87115 97.04082" fill-rule="nonzero"/><path stroke="#4285f4" stroke-width="2.0" stroke-linecap="butt" clip-path="url(#id_0)" d="M813.87115 97.843445L813.87115 96.41655" fill-rule="nonzero"/><path fill="#4285f4" clip-path="url(#id_0)" d="M801.8666 95.41655L825.87573 95.41655L825.87573 98.04082L801.8666 98.04082L801.8666 95.41655Z" fill-rule="nonzero"/><path fill="#4285f4" clip-path="url(#id_0)" d="M835.72687 95.32737L859.736 95.32737L859.736 97.32737L835.72687 97.32737L835.72687 95.32737Z" fill-rule="nonzero"/><path stroke="#4285f4" stroke-width="2.0" stroke-linecap="butt" clip-path="url(#id_0)" d="M881.5917 89.282074L881.5917 92.38111" fill-rule="nonzero"/><path stroke="#4285f4" stroke-width="2.0" stroke-linecap="butt" clip-path="url(#id_0)" d="M881.5917 92.84931L881.5917 91.868324" fill-rule="nonzero"/><path fill="#4285f4" clip-path="url(#id_0)" d="M869.5871 90.868324L893.59625 90.868324L893.59625 93.38111L869.5871 93.38111L869.5871 90.868324Z" fill-rule="nonzero"/><path stroke="#4285f4" stroke-width="2.0" stroke-linecap="butt" clip-path="url(#id_0)" d="M915.45197 91.24406L915.45197 92.38111" fill-rule="nonzero"/><path stroke="#4285f4" stroke-width="2.0" stroke-linecap="butt" clip-path="url(#id_0)" d="M915.45197 92.76013L915.45197 92.0021" fill-rule="nonzero"/><path fill="#4285f4" clip-path="url(#id_0)" d="M903.4474 91.0021L927.45654 91.0021L927.45654 93.38112L903.4474 93.38112L903.4474 91.0021Z" fill-rule="nonzero"/><path stroke="#4285f4" stroke-width="2.0" stroke-linecap="butt" clip-path="url(#id_0)" d="M949.31226 88.30109L949.31226 89.282074" fill-rule="nonzero"/><path stroke="#4285f4" stroke-width="2.0" stroke-linecap="butt" clip-path="url(#id_0)" d="M949.31226 90.17389L949.31226 88.39027" fill-rule="nonzero"/><path fill="#4285f4" clip-path="url(#id_0)" d="M937.3076 87.39027L961.3168 87.39027L961.3168 90.282074L937.3076 90.282074L937.3076 87.39027Z" fill-rule="nonzero"/><path stroke="#4285f4" stroke-width="2.0" stroke-linecap="butt" clip-path="url(#id_0)" d="M983.1725 80.36398L983.1725 83.17318" fill-rule="nonzero"/><path stroke="#4285f4" stroke-width="2.0" stroke-linecap="butt" clip-path="url(#id_0)" d="M983.1725 87.58764L983.1725 81.12202" fill-rule="nonzero"/><path fill="#4285f4" clip-path="url(#id_0)" d="M971.1679 80.12202L995.17706 80.12202L995.17706 84.17318L971.1679 84.17318L971.1679 80.12202Z" fill-rule="nonzero"/><path stroke="#4285f4" stroke-width="2.0" stroke-linecap="butt" clip-path="url(#id_0)" d="M1017.0328 78.75872L1017.0328 80.096436" fill-rule="nonzero"/><path stroke="#4285f4" stroke-width="2.0" stroke-linecap="butt" clip-path="url(#id_0)" d="M1017.0328 81.25579L1017.0328 79.739716" fill-rule="nonzero"/><path fill="#4285f4" clip-path="url(#id_0)" d="M1005.02814 78.739716L1029.0374 78.739716L1029.0374 81.096436L1005.02814 81.096436L1005.02814 78.739716Z" fill-rule="nonzero"/><path fill="#4285f4" clip-path="url(#id_0)" d="M1038.8884 76.064285L1062.8976 76.064285L1062.8976 78.064285L1038.8884 78.064285L1038.8884 76.064285Z" fill-rule="nonzero"/><path stroke="#4285f4" stroke-width="2.0" stroke-linecap="butt" clip-path="url(#id_0)" d="M1084.7533 71.624245L1084.7533 75.23608" fill-rule="nonzero"/><path stroke="#4285f4" stroke-width="2.0" stroke-linecap="butt" clip-path="url(#id_0)" d="M1084.7533 76.44002L1084.7533 74.032135" fill-rule="nonzero"/><path fill="#4285f4" clip-path="url(#id_0)" d="M1072.7487 73.032135L1096.7578 73.032135L1096.7578 76.23608L1072.7487 76.23608L1072.7487 73.032135Z" fill-rule="nonzero"/><path stroke="#4285f4" stroke-width="2.0" stroke-linecap="butt" clip-path="url(#id_0)" d="M1118.6135 63.865505L1118.6135 72.49376" fill-rule="nonzero"/><path stroke="#4285f4" stroke-width="2.0" stroke-linecap="butt" clip-path="url(#id_0)" d="M1118.6135 75.36985L1118.6135 69.617676" fill-rule="nonzero"/><path fill="#4285f4" clip-path="url(#id_0)" d="M1106.609 68.617676L1130.6182 68.617676L1130.6182 73.49376L1106.609 73.49376L1106.609 68.617676Z" fill-rule="nonzero"/><path stroke="#4285f4" stroke-width="2.0" stroke-linecap="butt" clip-path="url(#id_0)" d="M1152.4738 73.49705L1152.4738 73.89836" fill-rule="nonzero"/><path stroke="#4285f4" stroke-width="2.0" stroke-linecap="butt" clip-path="url(#id_0)" d="M1152.4738 74.032135L1152.4738 73.76459" fill-rule="nonzero"/><path fill="#4285f4" clip-path="url(#id_0)" d="M1140.4692 72.76459L1164.4784 72.76459L1164.4784 74.89836L1140.4692 74.89836L1140.4692 72.76459Z" fill-rule="nonzero"/><path fill="#4285f4" clip-path="url(#id_0)" d="M1174.3295 71.42688L1198.3386 71.42688L1198.3386 73.42688L1174.3295 73.42688L1174.3295 71.42688Z" fill-rule="nonzero"/><path stroke="#4285f4" stroke-width="2.0" stroke-linecap="butt" clip-path="url(#id_0)" d="M1220.1943 67.25438L1220.1943 67.72258" fill-rule="nonzero"/><path stroke="#4285f4" stroke-width="2.0" stroke-linecap="butt" clip-path="url(#id_0)" d="M1220.1943 67.87865L1220.1943 67.56651" fill-rule="nonzero"/><path fill="#4285f4" clip-path="url(#id_0)" d="M1208.1897 66.56651L1232.1989 66.56651L1232.1989 68.72258L1208.1897 68.72258L1208.1897 66.56651Z" fill-rule="nonzero"/><path stroke="#666666" stroke-width="1.0" stroke-linecap="butt" d="M102.5 378.5L102.5 366.5" fill-rule="nonzero"/><path stroke="#666666" stroke-width="1.0" stroke-linecap="butt" d="M136.5 378.5L136.5 366.5" fill-rule="nonzero"/><path stroke="#666666" stroke-width="1.0" stroke-linecap="butt" d="M170.5 378.5L170.5 366.5" fill-rule="nonzero"/><path stroke="#666666" stroke-width="1.0" stroke-linecap="butt" d="M204.5 378.5L204.5 366.5" fill-rule="nonzero"/><path stroke="#666666" stroke-width="1.0" stroke-linecap="butt" d="M238.5 378.5L238.5 366.5" fill-rule="nonzero"/><path stroke="#666666" stroke-width="1.0" stroke-linecap="butt" d="M272.5 378.5L272.5 366.5" fill-rule="nonzero"/><path stroke="#666666" stroke-width="1.0" stroke-linecap="butt" d="M305.5 378.5L305.5 366.5" fill-rule="nonzero"/><path stroke="#666666" stroke-width="1.0" stroke-linecap="butt" d="M339.5 378.5L339.5 366.5" fill-rule="nonzero"/><path stroke="#666666" stroke-width="1.0" stroke-linecap="butt" d="M373.5 378.5L373.5 366.5" fill-rule="nonzero"/><path stroke="#666666" stroke-width="1.0" stroke-linecap="butt" d="M407.5 378.5L407.5 366.5" fill-rule="nonzero"/><path stroke="#666666" stroke-width="1.0" stroke-linecap="butt" d="M441.5 378.5L441.5 366.5" fill-rule="nonzero"/><path stroke="#666666" stroke-width="1.0" stroke-linecap="butt" d="M475.5 378.5L475.5 366.5" fill-rule="nonzero"/><path stroke="#666666" stroke-width="1.0" stroke-linecap="butt" d="M509.5 378.5L509.5 366.5" fill-rule="nonzero"/><path stroke="#666666" stroke-width="1.0" stroke-linecap="butt" d="M542.5 378.5L542.5 366.5" fill-rule="nonzero"/><path stroke="#666666" stroke-width="1.0" stroke-linecap="butt" d="M576.5 378.5L576.5 366.5" fill-rule="nonzero"/><path stroke="#666666" stroke-width="1.0" stroke-linecap="butt" d="M610.5 378.5L610.5 366.5" fill-rule="nonzero"/><path stroke="#666666" stroke-width="1.0" stroke-linecap="butt" d="M644.5 378.5L644.5 366.5" fill-rule="nonzero"/><path stroke="#666666" stroke-width="1.0" stroke-linecap="butt" d="M678.5 378.5L678.5 366.5" fill-rule="nonzero"/><path stroke="#666666" stroke-width="1.0" stroke-linecap="butt" d="M712.5 378.5L712.5 366.5" fill-rule="nonzero"/><path stroke="#666666" stroke-width="1.0" stroke-linecap="butt" d="M746.5 378.5L746.5 366.5" fill-rule="nonzero"/><path stroke="#666666" stroke-width="1.0" stroke-linecap="butt" d="M780.5 378.5L780.5 366.5" fill-rule="nonzero"/><path stroke="#666666" stroke-width="1.0" stroke-linecap="butt" d="M813.5 378.5L813.5 366.5" fill-rule="nonzero"/><path stroke="#666666" stroke-width="1.0" stroke-linecap="butt" d="M847.5 378.5L847.5 366.5" fill-rule="nonzero"/><path stroke="#666666" stroke-width="1.0" stroke-linecap="butt" d="M881.5 378.5L881.5 366.5" fill-rule="nonzero"/><path stroke="#666666" stroke-width="1.0" stroke-linecap="butt" d="M915.5 378.5L915.5 366.5" fill-rule="nonzero"/><path stroke="#666666" stroke-width="1.0" stroke-linecap="butt" d="M949.5 378.5L949.5 366.5" fill-rule="nonzero"/><path stroke="#666666" stroke-width="1.0" stroke-linecap="butt" d="M983.5 378.5L983.5 366.5" fill-rule="nonzero"/><path stroke="#666666" stroke-width="1.0" stroke-linecap="butt" d="M1017.5 378.5L1017.5 366.5" fill-rule="nonzero"/><path stroke="#666666" stroke-width="1.0" stroke-linecap="butt" d="M1050.5 378.5L1050.5 366.5" fill-rule="nonzero"/><path stroke="#666666" stroke-width="1.0" stroke-linecap="butt" d="M1084.5 378.5L1084.5 366.5" fill-rule="nonzero"/><path stroke="#666666" stroke-width="1.0" stroke-linecap="butt" d="M1118.5 378.5L1118.5 366.5" fill-rule="nonzero"/><path stroke="#666666" stroke-width="1.0" stroke-linecap="butt" d="M1152.5 378.5L1152.5 366.5" fill-rule="nonzero"/><path stroke="#666666" stroke-width="1.0" stroke-linecap="butt" d="M1186.5 378.5L1186.5 366.5" fill-rule="nonzero"/><path stroke="#666666" stroke-width="1.0" stroke-linecap="butt" d="M1220.5 378.5L1220.5 366.5" fill-rule="nonzero"/><path fill="#000000" d="M31.949987 236.68646L25.731237 236.68646L25.731237 235.74896L26.606237 235.74896Q26.137487 235.45209 25.871862 234.96771Q25.590612 234.48334 25.590612 233.85834Q25.590612 233.17084 25.871862 232.73334Q26.153112 232.28021 26.668737 232.10834Q25.590612 231.35834 25.590612 230.18646Q25.590612 229.24896 26.106237 228.76459Q26.606237 228.26459 27.684362 228.26459L31.949987 228.26459L31.949987 229.31146L28.028112 229.31146Q27.403112 229.31146 27.121862 229.42084Q26.840612 229.51459 26.668737 229.78021Q26.496862 230.04584 26.496862 230.42084Q26.496862 231.07709 26.934362 231.51459Q27.371862 231.93646 28.340612 231.93646L31.949987 231.93646L31.949987 232.99896L27.903112 232.99896Q27.199987 232.99896 26.856237 233.26459Q26.496862 233.51459 26.496862 234.09271Q26.496862 234.54584 26.731237 234.92084Q26.965612 235.29584 27.418737 235.46771Q27.871862 235.63959 28.715612 235.63959L31.949987 235.63959L31.949987 236.68646ZM30.090612 226.10834L29.934362 225.07709Q30.559362 224.98334 30.887487 224.59271Q31.215612 224.18646 31.215612 223.45209Q31.215612 222.73334 30.934362 222.38959Q30.637487 222.03021 30.231237 222.03021Q29.871862 222.03021 29.668737 222.34271Q29.528112 222.56146 29.309362 223.42084Q29.012487 224.57709 28.809362 225.03021Q28.590612 225.46771 28.215612 225.70209Q27.840612 225.93646 27.371862 225.93646Q26.965612 225.93646 26.606237 225.74896Q26.246862 225.56146 26.012487 225.23334Q25.840612 224.98334 25.715612 224.56146Q25.590612 224.13959 25.590612 223.63959Q25.590612 222.92084 25.809362 222.37396Q26.012487 221.81146 26.371862 221.54584Q26.731237 221.28021 27.324987 221.18646L27.465612 222.21771Q26.996862 222.28021 26.731237 222.62396Q26.449987 222.95209 26.449987 223.57709Q26.449987 224.29584 26.699987 224.60834Q26.934362 224.92084 27.262487 224.92084Q27.465612 224.92084 27.621862 224.79584Q27.793737 224.65521 27.903112 224.38959Q27.965612 224.23334 28.168737 223.45209Q28.481237 222.32709 28.668737 221.88959Q28.856237 221.45209 29.215612 221.20209Q29.574987 220.95209 30.121862 220.95209Q30.653112 220.95209 31.121862 221.26459Q31.574987 221.56146 31.840612 222.13959Q32.090614 222.71771 32.090614 223.45209Q32.090614 224.67084 31.590612 225.31146Q31.074987 225.93646 30.090612 226.10834Z" fill-rule="nonzero"/><path fill="#000000" d="M67.45 377.8156Q67.45 376.28436 67.7625 375.3625Q68.075 374.425 68.68437 373.925Q69.30937 373.425 70.24687 373.425Q70.93437 373.425 71.45 373.70624Q71.98125 373.9875 72.325 374.51874Q72.66875 375.03436 72.85625 375.78436Q73.04375 376.53436 73.04375 377.8156Q73.04375 379.33124 72.73125 380.2531Q72.43437 381.175 71.80937 381.6906Q71.2 382.1906 70.24687 382.1906Q69.0125 382.1906 68.29375 381.3Q67.45 380.2375 67.45 377.8156ZM68.52812 377.8156Q68.52812 379.925 69.02812 380.6281Q69.52812 381.33124 70.24687 381.33124Q70.98125 381.33124 71.46562 380.6281Q71.96562 379.925 71.96562 377.8156Q71.96562 375.6906 71.46562 375.0031Q70.98125 374.3 70.23125 374.3Q69.5125 374.3 69.075 374.90936Q68.52812 375.6906 68.52812 377.8156Z" fill-rule="nonzero"/><path fill="#000000" d="M60.45 335.20953L61.559376 335.11578Q61.684376 335.92828 62.121876 336.33453Q62.575 336.74078 63.215626 336.74078Q63.965626 336.74078 64.49687 336.16266Q65.02812 335.58453 65.02812 334.64703Q65.02812 333.74078 64.5125 333.22516Q64.0125 332.6939 63.184376 332.6939Q62.684376 332.6939 62.2625 332.92828Q61.85625 333.16266 61.621876 333.52203L60.6375 333.39703L61.465626 328.99078L65.74687 328.99078L65.74687 329.99078L62.309376 329.99078L61.85625 332.30328Q62.621876 331.7564 63.465626 331.7564Q64.59062 331.7564 65.35625 332.53766Q66.1375 333.3189 66.1375 334.55328Q66.1375 335.70953 65.46562 336.5689Q64.6375 337.60016 63.215626 337.60016Q62.04375 337.60016 61.29375 336.9439Q60.559376 336.28766 60.45 335.20953ZM67.45 333.22516Q67.45 331.6939 67.7625 330.77203Q68.075 329.83453 68.68437 329.33453Q69.30937 328.83453 70.24687 328.83453Q70.93437 328.83453 71.45 329.11578Q71.98125 329.39703 72.325 329.92828Q72.66875 330.4439 72.85625 331.1939Q73.04375 331.9439 73.04375 333.22516Q73.04375 334.74078 72.73125 335.66266Q72.43437 336.58453 71.80937 337.10016Q71.2 337.60016 70.24687 337.60016Q69.0125 337.60016 68.29375 336.70953Q67.45 335.64703 67.45 333.22516ZM68.52812 333.22516Q68.52812 335.33453 69.02812 336.03766Q69.52812 336.74078 70.24687 336.74078Q70.98125 336.74078 71.46562 336.03766Q71.96562 335.33453 71.96562 333.22516Q71.96562 331.10016 71.46562 330.41266Q70.98125 329.70953 70.23125 329.70953Q69.5125 329.70953 69.075 330.3189Q68.52812 331.10016 68.52812 333.22516Z" fill-rule="nonzero"/><path fill="#000000" d="M57.41875 292.86905L56.371876 292.86905L56.371876 286.1503Q55.98125 286.50967 55.35625 286.88467Q54.746876 287.24405 54.2625 287.41592L54.2625 286.4003Q55.1375 285.97842 55.79375 285.4003Q56.465626 284.80655 56.746876 284.24405L57.41875 284.24405L57.41875 292.86905ZM60.45 288.63467Q60.45 287.10342 60.7625 286.18155Q61.075 285.24405 61.684376 284.74405Q62.309376 284.24405 63.246876 284.24405Q63.934376 284.24405 64.45 284.5253Q64.98125 284.80655 65.325 285.3378Q65.66875 285.85342 65.85625 286.60342Q66.04375 287.35342 66.04375 288.63467Q66.04375 290.1503 65.73125 291.07217Q65.43437 291.99405 64.80937 292.50967Q64.2 293.00967 63.246876 293.00967Q62.0125 293.00967 61.29375 292.11905Q60.45 291.05655 60.45 288.63467ZM61.528126 288.63467Q61.528126 290.74405 62.028126 291.44717Q62.528126 292.1503 63.246876 292.1503Q63.98125 292.1503 64.46562 291.44717Q64.96562 290.74405 64.96562 288.63467Q64.96562 286.50967 64.46562 285.82217Q63.98125 285.11905 63.23125 285.11905Q62.5125 285.11905 62.075 285.72842Q61.528126 286.50967 61.528126 288.63467ZM67.45 288.63467Q67.45 287.10342 67.7625 286.18155Q68.075 285.24405 68.68437 284.74405Q69.30937 284.24405 70.24687 284.24405Q70.93437 284.24405 71.45 284.5253Q71.98125 284.80655 72.325 285.3378Q72.66875 285.85342 72.85625 286.60342Q73.04375 287.35342 73.04375 288.63467Q73.04375 290.1503 72.73125 291.07217Q72.43437 291.99405 71.80937 292.50967Q71.2 293.00967 70.24687 293.00967Q69.0125 293.00967 68.29375 292.11905Q67.45 291.05655 67.45 288.63467ZM68.52812 288.63467Q68.52812 290.74405 69.02812 291.44717Q69.52812 292.1503 70.24687 292.1503Q70.98125 292.1503 71.46562 291.44717Q71.96562 290.74405 71.96562 288.63467Q71.96562 286.50967 71.46562 285.82217Q70.98125 285.11905 70.23125 285.11905Q69.5125 285.11905 69.075 285.72842Q68.52812 286.50967 68.52812 288.63467Z" fill-rule="nonzero"/><path fill="#000000" d="M57.41875 248.27856L56.371876 248.27856L56.371876 241.55981Q55.98125 241.91919 55.35625 242.29419Q54.746876 242.65356 54.2625 242.82544L54.2625 241.80981Q55.1375 241.38794 55.79375 240.80981Q56.465626 240.21606 56.746876 239.65356L57.41875 239.65356L57.41875 248.27856ZM60.45 246.02856L61.559376 245.93481Q61.684376 246.74731 62.121876 247.15356Q62.575 247.55981 63.215626 247.55981Q63.965626 247.55981 64.49687 246.98169Q65.02812 246.40356 65.02812 245.46606Q65.02812 244.55981 64.5125 244.04419Q64.0125 243.51294 63.184376 243.51294Q62.684376 243.51294 62.2625 243.74731Q61.85625 243.98169 61.621876 244.34106L60.6375 244.21606L61.465626 239.80981L65.74687 239.80981L65.74687 240.80981L62.309376 240.80981L61.85625 243.12231Q62.621876 242.57544 63.465626 242.57544Q64.59062 242.57544 65.35625 243.35669Q66.1375 244.13794 66.1375 245.37231Q66.1375 246.52856 65.46562 247.38794Q64.6375 248.41919 63.215626 248.41919Q62.04375 248.41919 61.29375 247.76294Q60.559376 247.10669 60.45 246.02856ZM67.45 244.04419Q67.45 242.51294 67.7625 241.59106Q68.075 240.65356 68.68437 240.15356Q69.30937 239.65356 70.24687 239.65356Q70.93437 239.65356 71.45 239.93481Q71.98125 240.21606 72.325 240.74731Q72.66875 241.26294 72.85625 242.01294Q73.04375 242.76294 73.04375 244.04419Q73.04375 245.55981 72.73125 246.48169Q72.43437 247.40356 71.80937 247.91919Q71.2 248.41919 70.24687 248.41919Q69.0125 248.41919 68.29375 247.52856Q67.45 246.46606 67.45 244.04419ZM68.52812 244.04419Q68.52812 246.15356 69.02812 246.85669Q69.52812 247.55981 70.24687 247.55981Q70.98125 247.55981 71.46562 246.85669Q71.96562 246.15356 71.96562 244.04419Q71.96562 241.91919 71.46562 241.23169Q70.98125 240.52856 70.23125 240.52856Q69.5125 240.52856 69.075 241.13794Q68.52812 241.91919 68.52812 244.04419Z" fill-rule="nonzero"/><path fill="#000000" d="M58.996876 202.67247L58.996876 203.6881L53.309376 203.6881Q53.309376 203.3131 53.434376 202.95372Q53.653126 202.3756 54.121876 201.8131Q54.60625 201.2506 55.5125 200.51622Q56.91875 199.35997 57.403126 198.6881Q57.903126 198.01622 57.903126 197.42247Q57.903126 196.79747 57.45 196.3756Q56.996876 195.9381 56.278126 195.9381Q55.5125 195.9381 55.059376 196.39122Q54.60625 196.84435 54.590626 197.65685L53.5125 197.54747Q53.621876 196.32872 54.340626 195.70372Q55.075 195.0631 56.309376 195.0631Q57.54375 195.0631 58.2625 195.7506Q58.98125 196.4381 58.98125 197.45372Q58.98125 197.96935 58.7625 198.46935Q58.559376 198.95372 58.059376 199.51622Q57.575 200.0631 56.45 201.01622Q55.496876 201.8131 55.215626 202.10997Q54.95 202.39122 54.778126 202.67247L58.996876 202.67247ZM60.45 199.45372Q60.45 197.92247 60.7625 197.0006Q61.075 196.0631 61.684376 195.5631Q62.309376 195.0631 63.246876 195.0631Q63.934376 195.0631 64.45 195.34435Q64.98125 195.6256 65.325 196.15685Q65.66875 196.67247 65.85625 197.42247Q66.04375 198.17247 66.04375 199.45372Q66.04375 200.96935 65.73125 201.89122Q65.43437 202.8131 64.80937 203.32872Q64.2 203.82872 63.246876 203.82872Q62.0125 203.82872 61.29375 202.9381Q60.45 201.8756 60.45 199.45372ZM61.528126 199.45372Q61.528126 201.5631 62.028126 202.26622Q62.528126 202.96935 63.246876 202.96935Q63.98125 202.96935 64.46562 202.26622Q64.96562 201.5631 64.96562 199.45372Q64.96562 197.32872 64.46562 196.64122Q63.98125 195.9381 63.23125 195.9381Q62.5125 195.9381 62.075 196.54747Q61.528126 197.32872 61.528126 199.45372ZM67.45 199.45372Q67.45 197.92247 67.7625 197.0006Q68.075 196.0631 68.68437 195.5631Q69.30937 195.0631 70.24687 195.0631Q70.93437 195.0631 71.45 195.34435Q71.98125 195.6256 72.325 196.15685Q72.66875 196.67247 72.85625 197.42247Q73.04375 198.17247 73.04375 199.45372Q73.04375 200.96935 72.73125 201.89122Q72.43437 202.8131 71.80937 203.32872Q71.2 203.82872 70.24687 203.82872Q69.0125 203.82872 68.29375 202.9381Q67.45 201.8756 67.45 199.45372ZM68.52812 199.45372Q68.52812 201.5631 69.02812 202.26622Q69.52812 202.96935 70.24687 202.96935Q70.98125 202.96935 71.46562 202.26622Q71.96562 201.5631 71.96562 199.45372Q71.96562 197.32872 71.46562 196.64122Q70.98125 195.9381 70.23125 195.9381Q69.5125 195.9381 69.075 196.54747Q68.52812 197.32872 68.52812 199.45372Z" fill-rule="nonzero"/><path fill="#000000" d="M58.996876 158.082L58.996876 159.09763L53.309376 159.09763Q53.309376 158.72263 53.434376 158.36325Q53.653126 157.78513 54.121876 157.22263Q54.60625 156.66013 55.5125 155.92575Q56.91875 154.7695 57.403126 154.09763Q57.903126 153.42575 57.903126 152.832Q57.903126 152.207 57.45 151.78513Q56.996876 151.34763 56.278126 151.34763Q55.5125 151.34763 55.059376 151.80075Q54.60625 152.25388 54.590626 153.06638L53.5125 152.957Q53.621876 151.73825 54.340626 151.11325Q55.075 150.47263 56.309376 150.47263Q57.54375 150.47263 58.2625 151.16013Q58.98125 151.84763 58.98125 152.86325Q58.98125 153.37888 58.7625 153.87888Q58.559376 154.36325 58.059376 154.92575Q57.575 155.47263 56.45 156.42575Q55.496876 157.22263 55.215626 157.5195Q54.95 157.80075 54.778126 158.082L58.996876 158.082ZM60.45 156.84763L61.559376 156.75388Q61.684376 157.56638 62.121876 157.97263Q62.575 158.37888 63.215626 158.37888Q63.965626 158.37888 64.49687 157.80075Q65.02812 157.22263 65.02812 156.28513Q65.02812 155.37888 64.5125 154.86325Q64.0125 154.332 63.184376 154.332Q62.684376 154.332 62.2625 154.56638Q61.85625 154.80075 61.621876 155.16013L60.6375 155.03513L61.465626 150.62888L65.74687 150.62888L65.74687 151.62888L62.309376 151.62888L61.85625 153.94138Q62.621876 153.3945 63.465626 153.3945Q64.59062 153.3945 65.35625 154.17575Q66.1375 154.957 66.1375 156.19138Q66.1375 157.34763 65.46562 158.207Q64.6375 159.23825 63.215626 159.23825Q62.04375 159.23825 61.29375 158.582Q60.559376 157.92575 60.45 156.84763ZM67.45 154.86325Q67.45 153.332 67.7625 152.41013Q68.075 151.47263 68.68437 150.97263Q69.30937 150.47263 70.24687 150.47263Q70.93437 150.47263 71.45 150.75388Q71.98125 151.03513 72.325 151.56638Q72.66875 152.082 72.85625 152.832Q73.04375 153.582 73.04375 154.86325Q73.04375 156.37888 72.73125 157.30075Q72.43437 158.22263 71.80937 158.73825Q71.2 159.23825 70.24687 159.23825Q69.0125 159.23825 68.29375 158.34763Q67.45 157.28513 67.45 154.86325ZM68.52812 154.86325Q68.52812 156.97263 69.02812 157.67575Q69.52812 158.37888 70.24687 158.37888Q70.98125 158.37888 71.46562 157.67575Q71.96562 156.97263 71.96562 154.86325Q71.96562 152.73825 71.46562 152.05075Q70.98125 151.34763 70.23125 151.34763Q69.5125 151.34763 69.075 151.957Q68.52812 152.73825 68.52812 154.86325Z" fill-rule="nonzero"/><path fill="#000000" d="M53.45 112.241516L54.5125 112.10089Q54.684376 112.991516 55.121876 113.397766Q55.559376 113.78839 56.184376 113.78839Q56.934376 113.78839 57.45 113.272766Q57.965626 112.75714 57.965626 111.991516Q57.965626 111.272766 57.48125 110.804016Q57.0125 110.31964 56.278126 110.31964Q55.98125 110.31964 55.528126 110.44464L55.653126 109.50714Q55.7625 109.522766 55.825 109.522766Q56.496876 109.522766 57.028126 109.179016Q57.575 108.81964 57.575 108.085266Q57.575 107.50714 57.184376 107.13214Q56.79375 106.741516 56.16875 106.741516Q55.559376 106.741516 55.1375 107.13214Q54.73125 107.522766 54.621876 108.28839L53.559376 108.10089Q53.746876 107.054016 54.434376 106.47589Q55.121876 105.88214 56.1375 105.88214Q56.840626 105.88214 57.434376 106.19464Q58.028126 106.491516 58.340626 107.00714Q58.653126 107.522766 58.653126 108.116516Q58.653126 108.66339 58.35625 109.13214Q58.059376 109.585266 57.48125 109.85089Q58.23125 110.022766 58.653126 110.585266Q59.075 111.13214 59.075 111.97589Q59.075 113.10089 58.246876 113.88214Q57.434376 114.66339 56.184376 114.66339Q55.059376 114.66339 54.309376 113.991516Q53.559376 113.304016 53.45 112.241516ZM60.45 110.272766Q60.45 108.741516 60.7625 107.81964Q61.075 106.88214 61.684376 106.38214Q62.309376 105.88214 63.246876 105.88214Q63.934376 105.88214 64.45 106.16339Q64.98125 106.44464 65.325 106.97589Q65.66875 107.491516 65.85625 108.241516Q66.04375 108.991516 66.04375 110.272766Q66.04375 111.78839 65.73125 112.710266Q65.43437 113.63214 64.80937 114.147766Q64.2 114.647766 63.246876 114.647766Q62.0125 114.647766 61.29375 113.75714Q60.45 112.69464 60.45 110.272766ZM61.528126 110.272766Q61.528126 112.38214 62.028126 113.085266Q62.528126 113.78839 63.246876 113.78839Q63.98125 113.78839 64.46562 113.085266Q64.96562 112.38214 64.96562 110.272766Q64.96562 108.147766 64.46562 107.460266Q63.98125 106.75714 63.23125 106.75714Q62.5125 106.75714 62.075 107.366516Q61.528126 108.147766 61.528126 110.272766ZM67.45 110.272766Q67.45 108.741516 67.7625 107.81964Q68.075 106.88214 68.68437 106.38214Q69.30937 105.88214 70.24687 105.88214Q70.93437 105.88214 71.45 106.16339Q71.98125 106.44464 72.325 106.97589Q72.66875 107.491516 72.85625 108.241516Q73.04375 108.991516 73.04375 110.272766Q73.04375 111.78839 72.73125 112.710266Q72.43437 113.63214 71.80937 114.147766Q71.2 114.647766 70.24687 114.647766Q69.0125 114.647766 68.29375 113.75714Q67.45 112.69464 67.45 110.272766ZM68.52812 110.272766Q68.52812 112.38214 69.02812 113.085266Q69.52812 113.78839 70.24687 113.78839Q70.98125 113.78839 71.46562 113.085266Q71.96562 112.38214 71.96562 110.272766Q71.96562 108.147766 71.46562 107.460266Q70.98125 106.75714 70.23125 106.75714Q69.5125 106.75714 69.075 107.366516Q68.52812 108.147766 68.52812 110.272766Z" fill-rule="nonzero"/><path fill="#000000" d="M53.45 67.65104L54.5125 67.510414Q54.684376 68.40104 55.121876 68.80729Q55.559376 69.197914 56.184376 69.197914Q56.934376 69.197914 57.45 68.68229Q57.965626 68.166664 57.965626 67.40104Q57.965626 66.68229 57.48125 66.21354Q57.0125 65.729164 56.278126 65.729164Q55.98125 65.729164 55.528126 65.854164L55.653126 64.916664Q55.7625 64.93229 55.825 64.93229Q56.496876 64.93229 57.028126 64.58854Q57.575 64.229164 57.575 63.49479Q57.575 62.916664 57.184376 62.541664Q56.79375 62.15104 56.16875 62.15104Q55.559376 62.15104 55.1375 62.541664Q54.73125 62.93229 54.621876 63.697914L53.559376 63.510414Q53.746876 62.46354 54.434376 61.885414Q55.121876 61.291664 56.1375 61.291664Q56.840626 61.291664 57.434376 61.604164Q58.028126 61.90104 58.340626 62.416664Q58.653126 62.93229 58.653126 63.52604Q58.653126 64.072914 58.35625 64.541664Q58.059376 64.99479 57.48125 65.260414Q58.23125 65.43229 58.653126 65.99479Q59.075 66.541664 59.075 67.385414Q59.075 68.510414 58.246876 69.291664Q57.434376 70.072914 56.184376 70.072914Q55.059376 70.072914 54.309376 69.40104Q53.559376 68.71354 53.45 67.65104ZM60.45 67.666664L61.559376 67.572914Q61.684376 68.385414 62.121876 68.791664Q62.575 69.197914 63.215626 69.197914Q63.965626 69.197914 64.49687 68.61979Q65.02812 68.041664 65.02812 67.104164Q65.02812 66.197914 64.5125 65.68229Q64.0125 65.15104 63.184376 65.15104Q62.684376 65.15104 62.2625 65.385414Q61.85625 65.61979 61.621876 65.979164L60.6375 65.854164L61.465626 61.447914L65.74687 61.447914L65.74687 62.447914L62.309376 62.447914L61.85625 64.760414Q62.621876 64.21354 63.465626 64.21354Q64.59062 64.21354 65.35625 64.99479Q66.1375 65.77604 66.1375 67.010414Q66.1375 68.166664 65.46562 69.02604Q64.6375 70.05729 63.215626 70.05729Q62.04375 70.05729 61.29375 69.40104Q60.559376 68.74479 60.45 67.666664ZM67.45 65.68229Q67.45 64.15104 67.7625 63.229164Q68.075 62.291664 68.68437 61.791664Q69.30937 61.291664 70.24687 61.291664Q70.93437 61.291664 71.45 61.572914Q71.98125 61.854164 72.325 62.385414Q72.66875 62.90104 72.85625 63.65104Q73.04375 64.40104 73.04375 65.68229Q73.04375 67.197914 72.73125 68.11979Q72.43437 69.041664 71.80937 69.55729Q71.2 70.05729 70.24687 70.05729Q69.0125 70.05729 68.29375 69.166664Q67.45 68.104164 67.45 65.68229ZM68.52812 65.68229Q68.52812 67.791664 69.02812 68.49479Q69.52812 69.197914 70.24687 69.197914Q70.98125 69.197914 71.46562 68.49479Q71.96562 67.791664 71.96562 65.68229Q71.96562 63.55729 71.46562 62.86979Q70.98125 62.166664 70.23125 62.166664Q69.5125 62.166664 69.075 62.77604Q68.52812 63.55729 68.52812 65.68229Z" fill-rule="nonzero"/><path fill="#000000" d="M100.665054 394.28436Q100.071304 394.78436 99.52443 394.9875Q98.99318 395.1906 98.36818 395.1906Q97.33693 395.1906 96.790054 394.6906Q96.24318 394.1906 96.24318 393.40936Q96.24318 392.95624 96.446304 392.58124Q96.64943 392.1906 96.99318 391.97186Q97.33693 391.7375 97.758804 391.6281Q98.05568 391.53436 98.696304 391.45624Q99.96193 391.3156 100.571304 391.09686Q100.571304 390.8781 100.571304 390.83124Q100.571304 390.175 100.27443 389.90936Q99.86818 389.5656 99.071304 389.5656Q98.33693 389.5656 97.977554 389.83124Q97.61818 390.08124 97.446304 390.7375L96.415054 390.59686Q96.55568 389.9406 96.883804 389.53436Q97.21193 389.1281 97.821304 388.90936Q98.43068 388.6906 99.227554 388.6906Q100.02443 388.6906 100.52443 388.8781Q101.02443 389.0656 101.258804 389.34686Q101.49318 389.6281 101.58693 390.0656Q101.633804 390.33124 101.633804 391.03436L101.633804 392.4406Q101.633804 393.90936 101.696304 394.3Q101.77443 394.6906 101.977554 395.05L100.86818 395.05Q100.71193 394.72186 100.665054 394.28436ZM100.571304 391.925Q99.99318 392.15936 98.852554 392.33124Q98.196304 392.425 97.93068 392.55Q97.665054 392.65936 97.508804 392.8781Q97.36818 393.09686 97.36818 393.3781Q97.36818 393.8 97.68068 394.08124Q98.008804 394.3625 98.61818 394.3625Q99.227554 394.3625 99.696304 394.09686Q100.18068 393.83124 100.39943 393.3625Q100.571304 393.0031 100.571304 392.3156L100.571304 391.925ZM107.68068 395.05L107.68068 394.1281Q106.946304 395.1906 105.696304 395.1906Q105.14943 395.1906 104.665054 394.9875Q104.196304 394.76874 103.96193 394.45624Q103.727554 394.1281 103.633804 393.65936Q103.571304 393.3625 103.571304 392.675L103.571304 388.83124L104.633804 388.83124L104.633804 392.28436Q104.633804 393.09686 104.696304 393.39374Q104.790054 393.8 105.102554 394.05Q105.43068 394.28436 105.915054 394.28436Q106.383804 394.28436 106.790054 394.05Q107.21193 393.8 107.383804 393.3781Q107.571304 392.95624 107.571304 392.15936L107.571304 388.83124L108.61818 388.83124L108.61818 395.05L107.68068 395.05Z" fill-rule="nonzero"/><path fill="#000000" d="M131.46281 395.05L131.46281 388.83124L132.40031 388.83124L132.40031 389.70624Q133.08781 388.6906 134.38469 388.6906Q134.94719 388.6906 135.41594 388.89374Q135.90031 389.09686 136.13469 389.425Q136.36906 389.7531 136.46281 390.1906Q136.50969 390.4875 136.50969 391.22186L136.50969 395.05L135.46281 395.05L135.46281 391.26874Q135.46281 390.6125 135.33781 390.3Q135.21281 389.9875 134.90031 389.8Q134.58781 389.59686 134.16594 389.59686Q133.49406 389.59686 132.99406 390.03436Q132.50969 390.45624 132.50969 391.64374L132.50969 395.05L131.46281 395.05ZM137.90031 395.05L137.90031 394.1906L141.86906 389.64374Q141.18156 389.675 140.66594 389.675L138.13469 389.675L138.13469 388.83124L143.22844 388.83124L143.22844 389.51874L139.85344 393.47186L139.19719 394.1906Q139.91594 394.14374 140.52531 394.14374L143.41594 394.14374L143.41594 395.05L137.90031 395.05Z" fill-rule="nonzero"/><path fill="#000000" d="M163.9012 393.1906L164.93245 393.03436Q165.0262 393.65936 165.41682 393.9875Q165.82307 394.3156 166.55745 394.3156Q167.2762 394.3156 167.61995 394.03436Q167.97932 393.7375 167.97932 393.33124Q167.97932 392.97186 167.66682 392.76874Q167.44807 392.6281 166.5887 392.40936Q165.43245 392.1125 164.97932 391.90936Q164.54182 391.6906 164.30745 391.3156Q164.07307 390.9406 164.07307 390.47186Q164.07307 390.0656 164.26057 389.70624Q164.44807 389.34686 164.7762 389.1125Q165.0262 388.9406 165.44807 388.8156Q165.86995 388.6906 166.36995 388.6906Q167.0887 388.6906 167.63557 388.90936Q168.19807 389.1125 168.4637 389.47186Q168.72932 389.83124 168.82307 390.425L167.79182 390.5656Q167.72932 390.09686 167.38557 389.83124Q167.05745 389.55 166.43245 389.55Q165.7137 389.55 165.4012 389.8Q165.0887 390.03436 165.0887 390.3625Q165.0887 390.5656 165.2137 390.72186Q165.35432 390.89374 165.61995 391.0031Q165.7762 391.0656 166.55745 391.26874Q167.68245 391.58124 168.11995 391.76874Q168.55745 391.95624 168.80745 392.3156Q169.05745 392.675 169.05745 393.22186Q169.05745 393.7531 168.74495 394.22186Q168.44807 394.675 167.86995 394.9406Q167.29182 395.1906 166.55745 395.1906Q165.3387 395.1906 164.69807 394.6906Q164.07307 394.175 163.9012 393.1906ZM171.11995 395.5656L172.1512 395.72186Q172.2137 396.1906 172.51057 396.40936Q172.9012 396.70624 173.57307 396.70624Q174.30745 396.70624 174.69807 396.40936Q175.10432 396.1125 175.24495 395.59686Q175.3387 395.26874 175.32307 394.2375Q174.63557 395.05 173.60432 395.05Q172.32307 395.05 171.61995 394.1281Q170.91682 393.1906 170.91682 391.90936Q170.91682 391.01874 171.22932 390.26874Q171.55745 389.5031 172.16682 389.09686Q172.7762 388.6906 173.60432 388.6906Q174.7137 388.6906 175.43245 389.58124L175.43245 388.83124L176.4012 388.83124L176.4012 394.20624Q176.4012 395.65936 176.10432 396.26874Q175.80745 396.8781 175.16682 397.22186Q174.5262 397.58124 173.5887 397.58124Q172.47932 397.58124 171.79182 397.08124Q171.10432 396.58124 171.11995 395.5656ZM171.99495 391.83124Q171.99495 393.05 172.47932 393.6125Q172.9637 394.175 173.69807 394.175Q174.43245 394.175 174.91682 393.6125Q175.41682 393.05 175.41682 391.8625Q175.41682 390.72186 174.9012 390.14374Q174.4012 389.5656 173.68245 389.5656Q172.97932 389.5656 172.47932 390.14374Q171.99495 390.70624 171.99495 391.83124Z" fill-rule="nonzero"/><path fill="#000000" d="M198.68333 395.05L198.68333 386.45624L199.73021 386.45624L199.73021 389.53436Q200.46458 388.6906 201.58958 388.6906Q202.29271 388.6906 202.79271 388.97186Q203.30833 389.2375 203.52708 389.72186Q203.74583 390.1906 203.74583 391.1125L203.74583 395.05L202.69896 395.05L202.69896 391.1125Q202.69896 390.3156 202.35521 389.95624Q202.01146 389.59686 201.38646 389.59686Q200.91771 389.59686 200.49583 389.84686Q200.08958 390.08124 199.90208 390.5031Q199.73021 390.90936 199.73021 391.64374L199.73021 395.05L198.68333 395.05ZM205.68333 395.05L205.68333 386.45624L206.74583 386.45624L206.74583 391.3625L209.23021 388.83124L210.60521 388.83124L208.21458 391.1281L210.83958 395.05L209.54271 395.05L207.48021 391.8625L206.74583 392.58124L206.74583 395.05L205.68333 395.05Z" fill-rule="nonzero"/><path fill="#000000" d="M236.12172 395.05L236.12172 394.1281Q235.38734 395.1906 234.13734 395.1906Q233.59047 395.1906 233.1061 394.9875Q232.63734 394.76874 232.40297 394.45624Q232.1686 394.1281 232.07484 393.65936Q232.01234 393.3625 232.01234 392.675L232.01234 388.83124L233.07484 388.83124L233.07484 392.28436Q233.07484 393.09686 233.13734 393.39374Q233.2311 393.8 233.5436 394.05Q233.87172 394.28436 234.3561 394.28436Q234.82484 394.28436 235.2311 394.05Q235.65297 393.8 235.82484 393.3781Q236.01234 392.95624 236.01234 392.15936L236.01234 388.83124L237.05922 388.83124L237.05922 395.05L236.12172 395.05ZM238.62172 393.1906L239.65297 393.03436Q239.74672 393.65936 240.13734 393.9875Q240.5436 394.3156 241.27797 394.3156Q241.99672 394.3156 242.34047 394.03436Q242.69984 393.7375 242.69984 393.33124Q242.69984 392.97186 242.38734 392.76874Q242.1686 392.6281 241.30922 392.40936Q240.15297 392.1125 239.69984 391.90936Q239.26234 391.6906 239.02797 391.3156Q238.7936 390.9406 238.7936 390.47186Q238.7936 390.0656 238.9811 389.70624Q239.1686 389.34686 239.49672 389.1125Q239.74672 388.9406 240.1686 388.8156Q240.59047 388.6906 241.09047 388.6906Q241.80922 388.6906 242.3561 388.90936Q242.9186 389.1125 243.18422 389.47186Q243.44984 389.83124 243.5436 390.425L242.51234 390.5656Q242.44984 390.09686 242.1061 389.83124Q241.77797 389.55 241.15297 389.55Q240.43422 389.55 240.12172 389.8Q239.80922 390.03436 239.80922 390.3625Q239.80922 390.5656 239.93422 390.72186Q240.07484 390.89374 240.34047 391.0031Q240.49672 391.0656 241.27797 391.26874Q242.40297 391.58124 242.84047 391.76874Q243.27797 391.95624 243.52797 392.3156Q243.77797 392.675 243.77797 393.22186Q243.77797 393.7531 243.46547 394.22186Q243.1686 394.675 242.59047 394.9406Q242.01234 395.1906 241.27797 395.1906Q240.05922 395.1906 239.4186 394.6906Q238.7936 394.175 238.62172 393.1906Z" fill-rule="nonzero"/><path fill="#000000" d="M267.88824 387.6906L267.88824 386.45624L268.95074 386.45624L268.95074 387.6906L267.88824 387.6906ZM266.56012 397.47186L266.74762 396.5656Q267.07574 396.64374 267.24762 396.64374Q267.57574 396.64374 267.732 396.425Q267.88824 396.22186 267.88824 395.3625L267.88824 388.83124L268.95074 388.83124L268.95074 395.39374Q268.95074 396.53436 268.65387 396.9875Q268.26324 397.58124 267.38824 397.58124Q266.95074 397.58124 266.56012 397.47186ZM270.90387 397.4406L270.90387 388.83124L271.857 388.83124L271.857 389.6281Q272.20074 389.15936 272.62262 388.925Q273.06012 388.6906 273.6695 388.6906Q274.46637 388.6906 275.07574 389.09686Q275.68512 389.5031 275.982 390.2531Q276.2945 391.0031 276.2945 391.89374Q276.2945 392.84686 275.95074 393.6125Q275.62262 394.3781 274.96637 394.78436Q274.31012 395.1906 273.59137 395.1906Q273.06012 395.1906 272.63824 394.97186Q272.21637 394.7375 271.95074 394.40936L271.95074 397.4406L270.90387 397.4406ZM271.857 391.97186Q271.857 393.175 272.34137 393.7531Q272.82574 394.3156 273.51324 394.3156Q274.21637 394.3156 274.71637 393.72186Q275.21637 393.1281 275.21637 391.8781Q275.21637 390.6906 274.732 390.1125Q274.24762 389.51874 273.56012 389.51874Q272.88824 389.51874 272.37262 390.14374Q271.857 390.76874 271.857 391.97186Z" fill-rule="nonzero"/><path fill="#000000" d="M304.32663 392.76874L305.35788 392.90936Q305.186 393.97186 304.48288 394.58124Q303.77975 395.1906 302.76413 395.1906Q301.48288 395.1906 300.70163 394.3625Q299.936 393.51874 299.936 391.95624Q299.936 390.95624 300.26413 390.20624Q300.60788 389.4406 301.27975 389.0656Q301.96725 388.6906 302.77975 388.6906Q303.77975 388.6906 304.42038 389.20624Q305.07663 389.70624 305.26413 390.65936L304.23288 390.8156Q304.09225 390.1906 303.71725 389.8781Q303.34225 389.55 302.811 389.55Q302.01413 389.55 301.51413 390.1281Q301.01413 390.6906 301.01413 391.925Q301.01413 393.1906 301.4985 393.7531Q301.98288 394.3156 302.7485 394.3156Q303.3735 394.3156 303.77975 393.9406Q304.20163 393.5656 304.32663 392.76874ZM310.32663 394.28436Q309.73288 394.78436 309.186 394.9875Q308.65475 395.1906 308.02975 395.1906Q306.9985 395.1906 306.45163 394.6906Q305.90475 394.1906 305.90475 393.40936Q305.90475 392.95624 306.10788 392.58124Q306.311 392.1906 306.65475 391.97186Q306.9985 391.7375 307.42038 391.6281Q307.71725 391.53436 308.35788 391.45624Q309.6235 391.3156 310.23288 391.09686Q310.23288 390.8781 310.23288 390.83124Q310.23288 390.175 309.936 389.90936Q309.52975 389.5656 308.73288 389.5656Q307.9985 389.5656 307.63913 389.83124Q307.27975 390.08124 307.10788 390.7375L306.07663 390.59686Q306.21725 389.9406 306.54538 389.53436Q306.8735 389.1281 307.48288 388.90936Q308.09225 388.6906 308.88913 388.6906Q309.686 388.6906 310.186 388.8781Q310.686 389.0656 310.92038 389.34686Q311.15475 389.6281 311.2485 390.0656Q311.29538 390.33124 311.29538 391.03436L311.29538 392.4406Q311.29538 393.90936 311.35788 394.3Q311.436 394.6906 311.63913 395.05L310.52975 395.05Q310.3735 394.72186 310.32663 394.28436ZM310.23288 391.925Q309.65475 392.15936 308.51413 392.33124Q307.85788 392.425 307.59225 392.55Q307.32663 392.65936 307.17038 392.8781Q307.02975 393.09686 307.02975 393.3781Q307.02975 393.8 307.34225 394.08124Q307.67038 394.3625 308.27975 394.3625Q308.88913 394.3625 309.35788 394.09686Q309.84225 393.83124 310.061 393.3625Q310.23288 393.0031 310.23288 392.3156L310.23288 391.925Z" fill-rule="nonzero"/><path fill="#000000" d="M335.6244 387.675L335.6244 386.45624L336.6869 386.45624L336.6869 387.675L335.6244 387.675ZM335.6244 395.05L335.6244 388.83124L336.6869 388.83124L336.6869 395.05L335.6244 395.05ZM342.8744 393.05L343.96814 393.175Q343.71814 394.1281 343.015 394.65936Q342.3119 395.1906 341.23376 395.1906Q339.8744 395.1906 339.0619 394.34686Q338.265 393.5031 338.265 391.9875Q338.265 390.425 339.0775 389.5656Q339.89 388.6906 341.17126 388.6906Q342.42126 388.6906 343.2025 389.53436Q343.9994 390.3781 343.9994 391.925Q343.9994 392.01874 343.9994 392.20624L339.35876 392.20624Q339.42126 393.2375 339.9369 393.78436Q340.4525 394.3156 341.23376 394.3156Q341.8119 394.3156 342.21814 394.01874Q342.64 393.70624 342.8744 393.05ZM339.42126 391.34686L342.89 391.34686Q342.8275 390.55 342.4994 390.15936Q341.98376 389.55 341.1869 389.55Q340.4525 389.55 339.9525 390.03436Q339.46814 390.51874 339.42126 391.34686Z" fill-rule="nonzero"/><path fill="#000000" d="M367.28152 395.5656L368.31277 395.72186Q368.37527 396.1906 368.67215 396.40936Q369.06277 396.70624 369.73465 396.70624Q370.46902 396.70624 370.85965 396.40936Q371.2659 396.1125 371.40652 395.59686Q371.50027 395.26874 371.48465 394.2375Q370.79715 395.05 369.7659 395.05Q368.48465 395.05 367.78152 394.1281Q367.0784 393.1906 367.0784 391.90936Q367.0784 391.01874 367.3909 390.26874Q367.71902 389.5031 368.3284 389.09686Q368.93777 388.6906 369.7659 388.6906Q370.87527 388.6906 371.59402 389.58124L371.59402 388.83124L372.56277 388.83124L372.56277 394.20624Q372.56277 395.65936 372.2659 396.26874Q371.96902 396.8781 371.3284 397.22186Q370.68777 397.58124 369.75027 397.58124Q368.6409 397.58124 367.9534 397.08124Q367.2659 396.58124 367.28152 395.5656ZM368.15652 391.83124Q368.15652 393.05 368.6409 393.6125Q369.12527 394.175 369.85965 394.175Q370.59402 394.175 371.0784 393.6125Q371.5784 393.05 371.5784 391.8625Q371.5784 390.72186 371.06277 390.14374Q370.56277 389.5656 369.84402 389.5656Q369.1409 389.5656 368.6409 390.14374Q368.15652 390.70624 368.15652 391.83124ZM375.4534 395.05L374.46902 395.05L374.46902 386.45624L375.53152 386.45624L375.53152 389.51874Q376.2034 388.6906 377.23465 388.6906Q377.81277 388.6906 378.31277 388.925Q378.8284 389.14374 379.15652 389.5656Q379.50027 389.9875 379.68777 390.58124Q379.87527 391.175 379.87527 391.84686Q379.87527 393.4406 379.0784 394.3156Q378.28152 395.1906 377.18777 395.1906Q376.0784 395.1906 375.4534 394.26874L375.4534 395.05ZM375.43777 391.89374Q375.43777 393.0031 375.75027 393.5031Q376.25027 394.3156 377.09402 394.3156Q377.78152 394.3156 378.28152 393.72186Q378.79715 393.1281 378.79715 391.925Q378.79715 390.70624 378.31277 390.1281Q377.8284 389.55 377.1409 389.55Q376.4534 389.55 375.93777 390.15936Q375.43777 390.7531 375.43777 391.89374Z" fill-rule="nonzero"/><path fill="#000000" d="M405.0949 395.05L405.0949 389.64374L404.1574 389.64374L404.1574 388.83124L405.0949 388.83124L405.0949 388.15936Q405.0949 387.53436 405.20428 387.2375Q405.36053 386.8156 405.73553 386.5656Q406.12616 386.3156 406.81366 386.3156Q407.26678 386.3156 407.79803 386.425L407.64178 387.33124Q407.31366 387.28436 407.01678 387.28436Q406.5324 387.28436 406.32928 387.4875Q406.14178 387.6906 406.14178 388.2531L406.14178 388.83124L407.36053 388.83124L407.36053 389.64374L406.14178 389.64374L406.14178 395.05L405.0949 395.05ZM407.82928 395.05L407.82928 388.83124L408.7824 388.83124L408.7824 389.76874Q409.14178 389.1125 409.43866 388.90936Q409.75116 388.6906 410.12616 388.6906Q410.6574 388.6906 411.20428 389.01874L410.8449 390.0031Q410.45428 389.76874 410.07928 389.76874Q409.7199 389.76874 409.43866 389.9875Q409.17303 390.1906 409.06366 390.5656Q408.87616 391.1281 408.87616 391.78436L408.87616 395.05L407.82928 395.05Z" fill-rule="nonzero"/><path fill="#000000" d="M437.20517 395.05L437.20517 388.83124L438.14267 388.83124L438.14267 389.70624Q438.83017 388.6906 440.12704 388.6906Q440.68954 388.6906 441.1583 388.89374Q441.64267 389.09686 441.87704 389.425Q442.11142 389.7531 442.20517 390.1906Q442.25204 390.4875 442.25204 391.22186L442.25204 395.05L441.20517 395.05L441.20517 391.26874Q441.20517 390.6125 441.08017 390.3Q440.95517 389.9875 440.64267 389.8Q440.33017 389.59686 439.9083 389.59686Q439.23642 389.59686 438.73642 390.03436Q438.25204 390.45624 438.25204 391.64374L438.25204 395.05L437.20517 395.05ZM444.17392 395.05L444.17392 386.45624L445.23642 386.45624L445.23642 395.05L444.17392 395.05Z" fill-rule="nonzero"/><path fill="#000000" d="M470.03418 395.05L469.0498 395.05L469.0498 386.45624L470.1123 386.45624L470.1123 389.51874Q470.78418 388.6906 471.81543 388.6906Q472.39355 388.6906 472.89355 388.925Q473.40918 389.14374 473.7373 389.5656Q474.08105 389.9875 474.26855 390.58124Q474.45605 391.175 474.45605 391.84686Q474.45605 393.4406 473.65918 394.3156Q472.8623 395.1906 471.76855 395.1906Q470.65918 395.1906 470.03418 394.26874L470.03418 395.05ZM470.01855 391.89374Q470.01855 393.0031 470.33105 393.5031Q470.83105 394.3156 471.6748 394.3156Q472.3623 394.3156 472.8623 393.72186Q473.37793 393.1281 473.37793 391.925Q473.37793 390.70624 472.89355 390.1281Q472.40918 389.55 471.72168 389.55Q471.03418 389.55 470.51855 390.15936Q470.01855 390.7531 470.01855 391.89374ZM480.31543 393.05L481.40918 393.175Q481.15918 394.1281 480.45605 394.65936Q479.75293 395.1906 478.6748 395.1906Q477.31543 395.1906 476.50293 394.34686Q475.70605 393.5031 475.70605 391.9875Q475.70605 390.425 476.51855 389.5656Q477.33105 388.6906 478.6123 388.6906Q479.8623 388.6906 480.64355 389.53436Q481.44043 390.3781 481.44043 391.925Q481.44043 392.01874 481.44043 392.20624L476.7998 392.20624Q476.8623 393.2375 477.37793 393.78436Q477.89355 394.3156 478.6748 394.3156Q479.25293 394.3156 479.65918 394.01874Q480.08105 393.70624 480.31543 393.05ZM476.8623 391.34686L480.33105 391.34686Q480.26855 390.55 479.94043 390.15936Q479.4248 389.55 478.62793 389.55Q477.89355 389.55 477.39355 390.03436Q476.90918 390.51874 476.8623 391.34686Z" fill-rule="nonzero"/><path fill="#000000" d="M506.95694 395.05L506.95694 394.26874Q506.3632 395.1906 505.22256 395.1906Q504.47256 395.1906 503.84756 394.78436Q503.22256 394.3625 502.8788 393.6281Q502.53506 392.89374 502.53506 391.9406Q502.53506 391.01874 502.84756 390.2531Q503.16006 389.4875 503.78506 389.09686Q504.41006 388.6906 505.1757 388.6906Q505.7382 388.6906 506.1757 388.925Q506.6132 389.15936 506.89444 389.53436L506.89444 386.45624L507.9413 386.45624L507.9413 395.05L506.95694 395.05ZM503.6288 391.9406Q503.6288 393.14374 504.1288 393.7375Q504.6288 394.3156 505.3163 394.3156Q506.0038 394.3156 506.4882 393.7531Q506.97256 393.1906 506.97256 392.03436Q506.97256 390.7531 506.47256 390.15936Q505.9882 389.5656 505.26944 389.5656Q504.5663 389.5656 504.09756 390.14374Q503.6288 390.70624 503.6288 391.9406ZM514.17566 393.05L515.2694 393.175Q515.0194 394.1281 514.3163 394.65936Q513.61316 395.1906 512.53503 395.1906Q511.1757 395.1906 510.3632 394.34686Q509.5663 393.5031 509.5663 391.9875Q509.5663 390.425 510.3788 389.5656Q511.1913 388.6906 512.47253 388.6906Q513.72253 388.6906 514.5038 389.53436Q515.30066 390.3781 515.30066 391.925Q515.30066 392.01874 515.30066 392.20624L510.66006 392.20624Q510.72256 393.2375 511.2382 393.78436Q511.7538 394.3156 512.53503 394.3156Q513.11316 394.3156 513.5194 394.01874Q513.9413 393.70624 514.17566 393.05ZM510.72256 391.34686L514.1913 391.34686Q514.1288 390.55 513.80066 390.15936Q513.28503 389.55 512.48816 389.55Q511.7538 389.55 511.2538 390.03436Q510.76944 390.51874 510.72256 391.34686Z" fill-rule="nonzero"/><path fill="#000000" d="M541.03595 393.05L542.1297 393.175Q541.8797 394.1281 541.1766 394.65936Q540.47345 395.1906 539.3953 395.1906Q538.03595 395.1906 537.22345 394.34686Q536.4266 393.5031 536.4266 391.9875Q536.4266 390.425 537.2391 389.5656Q538.0516 388.6906 539.3328 388.6906Q540.5828 388.6906 541.3641 389.53436Q542.16095 390.3781 542.16095 391.925Q542.16095 392.01874 542.16095 392.20624L537.5203 392.20624Q537.5828 393.2375 538.09845 393.78436Q538.6141 394.3156 539.3953 394.3156Q539.97345 394.3156 540.3797 394.01874Q540.8016 393.70624 541.03595 393.05ZM537.5828 391.34686L541.0516 391.34686Q540.9891 390.55 540.66095 390.15936Q540.1453 389.55 539.34845 389.55Q538.6141 389.55 538.1141 390.03436Q537.6297 390.51874 537.5828 391.34686ZM543.3641 393.1906L544.3953 393.03436Q544.4891 393.65936 544.8797 393.9875Q545.28595 394.3156 546.0203 394.3156Q546.7391 394.3156 547.0828 394.03436Q547.4422 393.7375 547.4422 393.33124Q547.4422 392.97186 547.1297 392.76874Q546.91095 392.6281 546.0516 392.40936Q544.8953 392.1125 544.4422 391.90936Q544.0047 391.6906 543.7703 391.3156Q543.53595 390.9406 543.53595 390.47186Q543.53595 390.0656 543.72345 389.70624Q543.91095 389.34686 544.2391 389.1125Q544.4891 388.9406 544.91095 388.8156Q545.3328 388.6906 545.8328 388.6906Q546.5516 388.6906 547.09845 388.90936Q547.66095 389.1125 547.9266 389.47186Q548.1922 389.83124 548.28595 390.425L547.2547 390.5656Q547.1922 390.09686 546.84845 389.83124Q546.5203 389.55 545.8953 389.55Q545.1766 389.55 544.8641 389.8Q544.5516 390.03436 544.5516 390.3625Q544.5516 390.5656 544.6766 390.72186Q544.8172 390.89374 545.0828 391.0031Q545.2391 391.0656 546.0203 391.26874Q547.1453 391.58124 547.5828 391.76874Q548.0203 391.95624 548.2703 392.3156Q548.5203 392.675 548.5203 393.22186Q548.5203 393.7531 548.2078 394.22186Q547.91095 394.675 547.3328 394.9406Q546.7547 395.1906 546.0203 395.1906Q544.8016 395.1906 544.16095 394.6906Q543.53595 394.175 543.3641 393.1906Z" fill-rule="nonzero"/><path fill="#000000" d="M570.64624 395.05L570.64624 388.83124L571.58374 388.83124L571.58374 389.70624Q572.27124 388.6906 573.5681 388.6906Q574.1306 388.6906 574.59937 388.89374Q575.08374 389.09686 575.3181 389.425Q575.5525 389.7531 575.64624 390.1906Q575.6931 390.4875 575.6931 391.22186L575.6931 395.05L574.64624 395.05L574.64624 391.26874Q574.64624 390.6125 574.52124 390.3Q574.39624 389.9875 574.08374 389.8Q573.77124 389.59686 573.34937 389.59686Q572.6775 389.59686 572.1775 390.03436Q571.6931 390.45624 571.6931 391.64374L571.6931 395.05L570.64624 395.05ZM577.2556 391.9406Q577.2556 390.20624 578.20874 389.3781Q579.0056 388.6906 580.16187 388.6906Q581.4431 388.6906 582.2556 389.53436Q583.08374 390.3625 583.08374 391.84686Q583.08374 393.05 582.72437 393.7375Q582.365 394.425 581.66187 394.8156Q580.97437 395.1906 580.16187 395.1906Q578.865 395.1906 578.0525 394.3625Q577.2556 393.51874 577.2556 391.9406ZM578.33374 391.9406Q578.33374 393.1281 578.84937 393.72186Q579.3806 394.3156 580.16187 394.3156Q580.95874 394.3156 581.47437 393.72186Q581.99 393.1281 581.99 391.90936Q581.99 390.7531 581.45874 390.15936Q580.9431 389.5656 580.16187 389.5656Q579.3806 389.5656 578.84937 390.15936Q578.33374 390.7375 578.33374 391.9406Z" fill-rule="nonzero"/><path fill="#000000" d="M609.0377 395.05L609.0377 394.26874Q608.444 395.1906 607.30334 395.1906Q606.55334 395.1906 605.92834 394.78436Q605.30334 394.3625 604.9596 393.6281Q604.61584 392.89374 604.61584 391.9406Q604.61584 391.01874 604.92834 390.2531Q605.24084 389.4875 605.86584 389.09686Q606.49084 388.6906 607.2565 388.6906Q607.819 388.6906 608.2565 388.925Q608.694 389.15936 608.9752 389.53436L608.9752 386.45624L610.0221 386.45624L610.0221 395.05L609.0377 395.05ZM605.7096 391.9406Q605.7096 393.14374 606.2096 393.7375Q606.7096 394.3156 607.3971 394.3156Q608.0846 394.3156 608.569 393.7531Q609.05334 393.1906 609.05334 392.03436Q609.05334 390.7531 608.55334 390.15936Q608.069 389.5656 607.3502 389.5656Q606.6471 389.5656 606.17834 390.14374Q605.7096 390.70624 605.7096 391.9406ZM612.0065 395.05L612.0065 386.45624L613.069 386.45624L613.069 391.3625L615.55334 388.83124L616.92834 388.83124L614.5377 391.1281L617.1627 395.05L615.86584 395.05L613.80334 391.8625L613.069 392.58124L613.069 395.05L612.0065 395.05Z" fill-rule="nonzero"/><path fill="#000000" d="M642.92926 392.76874L643.9605 392.90936Q643.78864 393.97186 643.0855 394.58124Q642.3824 395.1906 641.36676 395.1906Q640.0855 395.1906 639.30426 394.3625Q638.53864 393.51874 638.53864 391.95624Q638.53864 390.95624 638.86676 390.20624Q639.2105 389.4406 639.8824 389.0656Q640.5699 388.6906 641.3824 388.6906Q642.3824 388.6906 643.023 389.20624Q643.67926 389.70624 643.86676 390.65936L642.8355 390.8156Q642.6949 390.1906 642.3199 389.8781Q641.9449 389.55 641.41364 389.55Q640.61676 389.55 640.11676 390.1281Q639.61676 390.6906 639.61676 391.925Q639.61676 393.1906 640.10114 393.7531Q640.5855 394.3156 641.35114 394.3156Q641.97614 394.3156 642.3824 393.9406Q642.80426 393.5656 642.92926 392.76874ZM644.86676 395.05L644.86676 386.45624L645.91364 386.45624L645.91364 389.53436Q646.648 388.6906 647.773 388.6906Q648.47614 388.6906 648.97614 388.97186Q649.49176 389.2375 649.7105 389.72186Q649.92926 390.1906 649.92926 391.1125L649.92926 395.05L648.8824 395.05L648.8824 391.1125Q648.8824 390.3156 648.53864 389.95624Q648.1949 389.59686 647.5699 389.59686Q647.10114 389.59686 646.67926 389.84686Q646.273 390.08124 646.0855 390.5031Q645.91364 390.90936 645.91364 391.64374L645.91364 395.05L644.86676 395.05Z" fill-rule="nonzero"/><path fill="#000000" d="M674.19574 395.05L674.19574 386.45624L675.25824 386.45624L675.25824 395.05L674.19574 395.05ZM681.3051 395.05L681.3051 394.1281Q680.57074 395.1906 679.32074 395.1906Q678.77386 395.1906 678.2895 394.9875Q677.82074 394.76874 677.58636 394.45624Q677.352 394.1281 677.25824 393.65936Q677.19574 393.3625 677.19574 392.675L677.19574 388.83124L678.25824 388.83124L678.25824 392.28436Q678.25824 393.09686 678.32074 393.39374Q678.4145 393.8 678.727 394.05Q679.0551 394.28436 679.5395 394.28436Q680.00824 394.28436 680.4145 394.05Q680.83636 393.8 681.00824 393.3781Q681.19574 392.95624 681.19574 392.15936L681.19574 388.83124L682.2426 388.83124L682.2426 395.05L681.3051 395.05Z" fill-rule="nonzero"/><path fill="#000000" d="M705.6654 393.1906L706.69666 393.03436Q706.7904 393.65936 707.181 393.9875Q707.5873 394.3156 708.32166 394.3156Q709.0404 394.3156 709.38416 394.03436Q709.7435 393.7375 709.7435 393.33124Q709.7435 392.97186 709.431 392.76874Q709.2123 392.6281 708.3529 392.40936Q707.19666 392.1125 706.7435 391.90936Q706.306 391.6906 706.07166 391.3156Q705.8373 390.9406 705.8373 390.47186Q705.8373 390.0656 706.0248 389.70624Q706.2123 389.34686 706.5404 389.1125Q706.7904 388.9406 707.2123 388.8156Q707.63416 388.6906 708.13416 388.6906Q708.8529 388.6906 709.3998 388.90936Q709.9623 389.1125 710.2279 389.47186Q710.4935 389.83124 710.5873 390.425L709.556 390.5656Q709.4935 390.09686 709.1498 389.83124Q708.82166 389.55 708.19666 389.55Q707.4779 389.55 707.1654 389.8Q706.8529 390.03436 706.8529 390.3625Q706.8529 390.5656 706.9779 390.72186Q707.1185 390.89374 707.38416 391.0031Q707.5404 391.0656 708.32166 391.26874Q709.44666 391.58124 709.88416 391.76874Q710.32166 391.95624 710.57166 392.3156Q710.82166 392.675 710.82166 393.22186Q710.82166 393.7531 710.50916 394.22186Q710.2123 394.675 709.63416 394.9406Q709.056 395.1906 708.32166 395.1906Q707.1029 395.1906 706.4623 394.6906Q705.8373 394.175 705.6654 393.1906ZM717.3373 393.05L718.431 393.175Q718.181 394.1281 717.4779 394.65936Q716.7748 395.1906 715.69666 395.1906Q714.3373 395.1906 713.5248 394.34686Q712.7279 393.5031 712.7279 391.9875Q712.7279 390.425 713.5404 389.5656Q714.3529 388.6906 715.63416 388.6906Q716.88416 388.6906 717.6654 389.53436Q718.4623 390.3781 718.4623 391.925Q718.4623 392.01874 718.4623 392.20624L713.82166 392.20624Q713.88416 393.2375 714.3998 393.78436Q714.9154 394.3156 715.69666 394.3156Q716.2748 394.3156 716.681 394.01874Q717.1029 393.70624 717.3373 393.05ZM713.88416 391.34686L717.3529 391.34686Q717.2904 390.55 716.9623 390.15936Q716.44666 389.55 715.6498 389.55Q714.9154 389.55 714.4154 390.03436Q713.931 390.51874 713.88416 391.34686Z" fill-rule="nonzero"/><path fill="#000000" d="M743.9475 387.675L743.9475 386.45624L745.01 386.45624L745.01 387.675L743.9475 387.675ZM743.9475 395.05L743.9475 388.83124L745.01 388.83124L745.01 395.05L743.9475 395.05ZM749.2444 394.1125L749.40063 395.03436Q748.9475 395.1281 748.60376 395.1281Q748.02563 395.1281 747.71313 394.95624Q747.40063 394.76874 747.26 394.47186Q747.135 394.175 747.135 393.22186L747.135 389.64374L746.3694 389.64374L746.3694 388.83124L747.135 388.83124L747.135 387.28436L748.1819 386.65936L748.1819 388.83124L749.2444 388.83124L749.2444 389.64374L748.1819 389.64374L748.1819 393.28436Q748.1819 393.7375 748.22876 393.8625Q748.29126 393.9875 748.41626 394.0656Q748.54126 394.14374 748.77563 394.14374Q748.96313 394.14374 749.2444 394.1125Z" fill-rule="nonzero"/><path fill="#000000" d="M779.8703 394.28436Q779.27655 394.78436 778.7297 394.9875Q778.1984 395.1906 777.5734 395.1906Q776.5422 395.1906 775.9953 394.6906Q775.4484 394.1906 775.4484 393.40936Q775.4484 392.95624 775.65155 392.58124Q775.8547 392.1906 776.1984 391.97186Q776.5422 391.7375 776.96405 391.6281Q777.2609 391.53436 777.90155 391.45624Q779.1672 391.3156 779.77655 391.09686Q779.77655 390.8781 779.77655 390.83124Q779.77655 390.175 779.4797 389.90936Q779.0734 389.5656 778.27655 389.5656Q777.5422 389.5656 777.1828 389.83124Q776.8234 390.08124 776.65155 390.7375L775.6203 390.59686Q775.7609 389.9406 776.08905 389.53436Q776.4172 389.1281 777.02655 388.90936Q777.6359 388.6906 778.4328 388.6906Q779.2297 388.6906 779.7297 388.8781Q780.2297 389.0656 780.46405 389.34686Q780.6984 389.6281 780.7922 390.0656Q780.83905 390.33124 780.83905 391.03436L780.83905 392.4406Q780.83905 393.90936 780.90155 394.3Q780.9797 394.6906 781.1828 395.05L780.0734 395.05Q779.9172 394.72186 779.8703 394.28436ZM779.77655 391.925Q779.1984 392.15936 778.0578 392.33124Q777.40155 392.425 777.1359 392.55Q776.8703 392.65936 776.71405 392.8781Q776.5734 393.09686 776.5734 393.3781Q776.5734 393.8 776.8859 394.08124Q777.21405 394.3625 777.8234 394.3625Q778.4328 394.3625 778.90155 394.09686Q779.3859 393.83124 779.6047 393.3625Q779.77655 393.0031 779.77655 392.3156L779.77655 391.925ZM785.1047 394.1125L785.2609 395.03436Q784.8078 395.1281 784.46405 395.1281Q783.8859 395.1281 783.5734 394.95624Q783.2609 394.76874 783.1203 394.47186Q782.9953 394.175 782.9953 393.22186L782.9953 389.64374L782.2297 389.64374L782.2297 388.83124L782.9953 388.83124L782.9953 387.28436L784.0422 386.65936L784.0422 388.83124L785.1047 388.83124L785.1047 389.64374L784.0422 389.64374L784.0422 393.28436Q784.0422 393.7375 784.08905 393.8625Q784.15155 393.9875 784.27655 394.0656Q784.40155 394.14374 784.6359 394.14374Q784.8234 394.14374 785.1047 394.1125Z" fill-rule="nonzero"/><path fill="#000000" d="M813.2305 392.76874L814.2618 392.90936Q814.0899 393.97186 813.3868 394.58124Q812.68365 395.1906 811.668 395.1906Q810.3868 395.1906 809.6055 394.3625Q808.8399 393.51874 808.8399 391.95624Q808.8399 390.95624 809.168 390.20624Q809.5118 389.4406 810.18365 389.0656Q810.87115 388.6906 811.68365 388.6906Q812.68365 388.6906 813.3243 389.20624Q813.9805 389.70624 814.168 390.65936L813.1368 390.8156Q812.99615 390.1906 812.62115 389.8781Q812.24615 389.55 811.7149 389.55Q810.918 389.55 810.418 390.1281Q809.918 390.6906 809.918 391.925Q809.918 393.1906 810.4024 393.7531Q810.8868 394.3156 811.6524 394.3156Q812.2774 394.3156 812.68365 393.9406Q813.1055 393.5656 813.2305 392.76874ZM814.6055 395.05L814.6055 394.1906L818.5743 389.64374Q817.8868 389.675 817.37115 389.675L814.8399 389.675L814.8399 388.83124L819.93365 388.83124L819.93365 389.51874L816.55865 393.47186L815.9024 394.1906Q816.62115 394.14374 817.2305 394.14374L820.12115 394.14374L820.12115 395.05L814.6055 395.05Z" fill-rule="nonzero"/><path fill="#000000" d="M844.4971 395.05L844.4971 386.45624L845.5596 386.45624L845.5596 395.05L844.4971 395.05ZM849.2471 395.05L846.8877 388.83124L847.9971 388.83124L849.3408 392.55Q849.54395 393.15936 849.73145 393.8Q849.8721 393.3156 850.1221 392.6281L851.5127 388.83124L852.5908 388.83124L850.23145 395.05L849.2471 395.05Z" fill-rule="nonzero"/><path fill="#000000" d="M877.38855 397.4406L877.38855 388.83124L878.3417 388.83124L878.3417 389.6281Q878.6854 389.15936 879.1073 388.925Q879.5448 388.6906 880.1542 388.6906Q880.95105 388.6906 881.5604 389.09686Q882.1698 389.5031 882.4667 390.2531Q882.7792 391.0031 882.7792 391.89374Q882.7792 392.84686 882.4354 393.6125Q882.1073 394.3781 881.45105 394.78436Q880.7948 395.1906 880.07605 395.1906Q879.5448 395.1906 879.1229 394.97186Q878.70105 394.7375 878.4354 394.40936L878.4354 397.4406L877.38855 397.4406ZM878.3417 391.97186Q878.3417 393.175 878.82605 393.7531Q879.3104 394.3156 879.9979 394.3156Q880.70105 394.3156 881.20105 393.72186Q881.70105 393.1281 881.70105 391.8781Q881.70105 390.6906 881.2167 390.1125Q880.7323 389.51874 880.0448 389.51874Q879.3729 389.51874 878.8573 390.14374Q878.3417 390.76874 878.3417 391.97186ZM884.3573 395.05L884.3573 386.45624L885.4198 386.45624L885.4198 395.05L884.3573 395.05Z" fill-rule="nonzero"/><path fill="#000000" d="M910.7332 395.05L910.7332 388.83124L911.68634 388.83124L911.68634 389.76874Q912.0457 389.1125 912.3426 388.90936Q912.6551 388.6906 913.0301 388.6906Q913.56134 388.6906 914.1082 389.01874L913.74884 390.0031Q913.3582 389.76874 912.9832 389.76874Q912.62384 389.76874 912.3426 389.9875Q912.07697 390.1906 911.9676 390.5656Q911.7801 391.1281 911.7801 391.78436L911.7801 395.05L910.7332 395.05ZM914.32697 393.1906L915.3582 393.03436Q915.45197 393.65936 915.8426 393.9875Q916.24884 394.3156 916.9832 394.3156Q917.70197 394.3156 918.0457 394.03436Q918.4051 393.7375 918.4051 393.33124Q918.4051 392.97186 918.0926 392.76874Q917.87384 392.6281 917.01447 392.40936Q915.8582 392.1125 915.4051 391.90936Q914.9676 391.6906 914.7332 391.3156Q914.49884 390.9406 914.49884 390.47186Q914.49884 390.0656 914.68634 389.70624Q914.87384 389.34686 915.20197 389.1125Q915.45197 388.9406 915.87384 388.8156Q916.2957 388.6906 916.7957 388.6906Q917.51447 388.6906 918.06134 388.90936Q918.62384 389.1125 918.88947 389.47186Q919.1551 389.83124 919.24884 390.425L918.2176 390.5656Q918.1551 390.09686 917.81134 389.83124Q917.4832 389.55 916.8582 389.55Q916.13947 389.55 915.82697 389.8Q915.51447 390.03436 915.51447 390.3625Q915.51447 390.5656 915.63947 390.72186Q915.7801 390.89374 916.0457 391.0031Q916.20197 391.0656 916.9832 391.26874Q918.1082 391.58124 918.5457 391.76874Q918.9832 391.95624 919.2332 392.3156Q919.4832 392.675 919.4832 393.22186Q919.4832 393.7531 919.1707 394.22186Q918.87384 394.675 918.2957 394.9406Q917.7176 395.1906 916.9832 395.1906Q915.76447 395.1906 915.12384 394.6906Q914.49884 394.175 914.32697 393.1906Z" fill-rule="nonzero"/><path fill="#000000" d="M947.35913 393.05L948.4529 393.175Q948.2029 394.1281 947.49976 394.65936Q946.79663 395.1906 945.7185 395.1906Q944.35913 395.1906 943.54663 394.34686Q942.74976 393.5031 942.74976 391.9875Q942.74976 390.425 943.56226 389.5656Q944.37476 388.6906 945.656 388.6906Q946.906 388.6906 947.68726 389.53436Q948.48413 390.3781 948.48413 391.925Q948.48413 392.01874 948.48413 392.20624L943.8435 392.20624Q943.906 393.2375 944.42163 393.78436Q944.93726 394.3156 945.7185 394.3156Q946.29663 394.3156 946.7029 394.01874Q947.12476 393.70624 947.35913 393.05ZM943.906 391.34686L947.37476 391.34686Q947.31226 390.55 946.98413 390.15936Q946.4685 389.55 945.67163 389.55Q944.93726 389.55 944.43726 390.03436Q943.9529 390.51874 943.906 391.34686ZM954.35913 393.05L955.4529 393.175Q955.2029 394.1281 954.49976 394.65936Q953.79663 395.1906 952.7185 395.1906Q951.35913 395.1906 950.54663 394.34686Q949.74976 393.5031 949.74976 391.9875Q949.74976 390.425 950.56226 389.5656Q951.37476 388.6906 952.656 388.6906Q953.906 388.6906 954.68726 389.53436Q955.48413 390.3781 955.48413 391.925Q955.48413 392.01874 955.48413 392.20624L950.8435 392.20624Q950.906 393.2375 951.42163 393.78436Q951.93726 394.3156 952.7185 394.3156Q953.29663 394.3156 953.7029 394.01874Q954.12476 393.70624 954.35913 393.05ZM950.906 391.34686L954.37476 391.34686Q954.31226 390.55 953.98413 390.15936Q953.4685 389.55 952.67163 389.55Q951.93726 389.55 951.43726 390.03436Q950.9529 390.51874 950.906 391.34686Z" fill-rule="nonzero"/><path fill="#000000" d="M977.9381 395.05L976.95374 395.05L976.95374 386.45624L978.01624 386.45624L978.01624 389.51874Q978.6881 388.6906 979.71936 388.6906Q980.2975 388.6906 980.7975 388.925Q981.3131 389.14374 981.64124 389.5656Q981.985 389.9875 982.1725 390.58124Q982.36 391.175 982.36 391.84686Q982.36 393.4406 981.5631 394.3156Q980.76624 395.1906 979.6725 395.1906Q978.5631 395.1906 977.9381 394.26874L977.9381 395.05ZM977.9225 391.89374Q977.9225 393.0031 978.235 393.5031Q978.735 394.3156 979.57874 394.3156Q980.26624 394.3156 980.76624 393.72186Q981.28186 393.1281 981.28186 391.925Q981.28186 390.70624 980.7975 390.1281Q980.3131 389.55 979.6256 389.55Q978.9381 389.55 978.4225 390.15936Q977.9225 390.7531 977.9225 391.89374ZM983.76624 395.5656L984.7975 395.72186Q984.86 396.1906 985.15686 396.40936Q985.5475 396.70624 986.21936 396.70624Q986.95374 396.70624 987.34436 396.40936Q987.7506 396.1125 987.89124 395.59686Q987.985 395.26874 987.96936 394.2375Q987.28186 395.05 986.2506 395.05Q984.96936 395.05 984.26624 394.1281Q983.5631 393.1906 983.5631 391.90936Q983.5631 391.01874 983.8756 390.26874Q984.20374 389.5031 984.8131 389.09686Q985.4225 388.6906 986.2506 388.6906Q987.36 388.6906 988.07874 389.58124L988.07874 388.83124L989.0475 388.83124L989.0475 394.20624Q989.0475 395.65936 988.7506 396.26874Q988.45374 396.8781 987.8131 397.22186Q987.1725 397.58124 986.235 397.58124Q985.1256 397.58124 984.4381 397.08124Q983.7506 396.58124 983.76624 395.5656ZM984.64124 391.83124Q984.64124 393.05 985.1256 393.6125Q985.61 394.175 986.34436 394.175Q987.07874 394.175 987.5631 393.6125Q988.0631 393.05 988.0631 391.8625Q988.0631 390.72186 987.5475 390.14374Q987.0475 389.5656 986.32874 389.5656Q985.6256 389.5656 985.1256 390.14374Q984.64124 390.70624 984.64124 391.83124Z" fill-rule="nonzero"/><path fill="#000000" d="M1012.314 395.05L1012.314 388.83124L1013.26715 388.83124L1013.26715 389.76874Q1013.6265 389.1125 1013.9234 388.90936Q1014.2359 388.6906 1014.6109 388.6906Q1015.14215 388.6906 1015.689 389.01874L1015.32965 390.0031Q1014.939 389.76874 1014.564 389.76874Q1014.20465 389.76874 1013.9234 389.9875Q1013.6578 390.1906 1013.5484 390.5656Q1013.3609 391.1281 1013.3609 391.78436L1013.3609 395.05L1012.314 395.05ZM1015.939 391.9406Q1015.939 390.20624 1016.89215 389.3781Q1017.689 388.6906 1018.8453 388.6906Q1020.1265 388.6906 1020.939 389.53436Q1021.76715 390.3625 1021.76715 391.84686Q1021.76715 393.05 1021.4078 393.7375Q1021.0484 394.425 1020.3453 394.8156Q1019.6578 395.1906 1018.8453 395.1906Q1017.5484 395.1906 1016.7359 394.3625Q1015.939 393.51874 1015.939 391.9406ZM1017.01715 391.9406Q1017.01715 393.1281 1017.5328 393.72186Q1018.064 394.3156 1018.8453 394.3156Q1019.64215 394.3156 1020.1578 393.72186Q1020.6734 393.1281 1020.6734 391.90936Q1020.6734 390.7531 1020.14215 390.15936Q1019.6265 389.5656 1018.8453 389.5656Q1018.064 389.5656 1017.5328 390.15936Q1017.01715 390.7375 1017.01715 391.9406Z" fill-rule="nonzero"/><path fill="#000000" d="M1043.19 395.05L1043.19 388.83124L1044.1274 388.83124L1044.1274 389.70624Q1044.4243 389.2375 1044.9087 388.97186Q1045.3931 388.6906 1046.0181 388.6906Q1046.7056 388.6906 1047.1431 388.97186Q1047.5962 389.2531 1047.7681 389.76874Q1048.5181 388.6906 1049.69 388.6906Q1050.6274 388.6906 1051.1118 389.20624Q1051.6118 389.70624 1051.6118 390.78436L1051.6118 395.05L1050.565 395.05L1050.565 391.1281Q1050.565 390.5031 1050.4556 390.22186Q1050.3618 389.9406 1050.0962 389.76874Q1049.8306 389.59686 1049.4556 389.59686Q1048.7993 389.59686 1048.3618 390.03436Q1047.94 390.47186 1047.94 391.4406L1047.94 395.05L1046.8774 395.05L1046.8774 391.0031Q1046.8774 390.3 1046.6118 389.95624Q1046.3618 389.59686 1045.7837 389.59686Q1045.3306 389.59686 1044.9556 389.83124Q1044.5806 390.0656 1044.4087 390.51874Q1044.2368 390.97186 1044.2368 391.8156L1044.2368 395.05L1043.19 395.05ZM1054.19 395.05L1054.19 386.45624L1055.2524 386.45624L1055.2524 391.3625L1057.7368 388.83124L1059.1118 388.83124L1056.7212 391.1281L1059.3462 395.05L1058.0493 395.05L1055.9868 391.8625L1055.2524 392.58124L1055.2524 395.05L1054.19 395.05Z" fill-rule="nonzero"/><path fill="#000000" d="M1081.0189 395.05L1080.0345 395.05L1080.0345 386.45624L1081.097 386.45624L1081.097 389.51874Q1081.7689 388.6906 1082.8002 388.6906Q1083.3783 388.6906 1083.8783 388.925Q1084.3939 389.14374 1084.722 389.5656Q1085.0658 389.9875 1085.2533 390.58124Q1085.4408 391.175 1085.4408 391.84686Q1085.4408 393.4406 1084.6439 394.3156Q1083.847 395.1906 1082.7533 395.1906Q1081.6439 395.1906 1081.0189 394.26874L1081.0189 395.05ZM1081.0033 391.89374Q1081.0033 393.0031 1081.3158 393.5031Q1081.8158 394.3156 1082.6595 394.3156Q1083.347 394.3156 1083.847 393.72186Q1084.3627 393.1281 1084.3627 391.925Q1084.3627 390.70624 1083.8783 390.1281Q1083.3939 389.55 1082.7064 389.55Q1082.0189 389.55 1081.5033 390.15936Q1081.0033 390.7531 1081.0033 391.89374ZM1087.0345 395.05L1087.0345 388.83124L1087.9877 388.83124L1087.9877 389.76874Q1088.347 389.1125 1088.6439 388.90936Q1088.9564 388.6906 1089.3314 388.6906Q1089.8627 388.6906 1090.4095 389.01874L1090.0502 390.0031Q1089.6595 389.76874 1089.2845 389.76874Q1088.9252 389.76874 1088.6439 389.9875Q1088.3783 390.1906 1088.2689 390.5656Q1088.0814 391.1281 1088.0814 391.78436L1088.0814 395.05L1087.0345 395.05Z" fill-rule="nonzero"/><path fill="#000000" d="M1114.4104 397.4406L1114.4104 388.83124L1115.3635 388.83124L1115.3635 389.6281Q1115.7073 389.15936 1116.1292 388.925Q1116.5667 388.6906 1117.176 388.6906Q1117.9729 388.6906 1118.5823 389.09686Q1119.1917 389.5031 1119.4885 390.2531Q1119.801 391.0031 1119.801 391.89374Q1119.801 392.84686 1119.4573 393.6125Q1119.1292 394.3781 1118.4729 394.78436Q1117.8167 395.1906 1117.0979 395.1906Q1116.5667 395.1906 1116.1448 394.97186Q1115.7229 394.7375 1115.4573 394.40936L1115.4573 397.4406L1114.4104 397.4406ZM1115.3635 391.97186Q1115.3635 393.175 1115.8479 393.7531Q1116.3323 394.3156 1117.0198 394.3156Q1117.7229 394.3156 1118.2229 393.72186Q1118.7229 393.1281 1118.7229 391.8781Q1118.7229 390.6906 1118.2385 390.1125Q1117.7542 389.51874 1117.0667 389.51874Q1116.3948 389.51874 1115.8792 390.14374Q1115.3635 390.76874 1115.3635 391.97186ZM1123.7073 394.1125L1123.8635 395.03436Q1123.4104 395.1281 1123.0667 395.1281Q1122.4885 395.1281 1122.176 394.95624Q1121.8635 394.76874 1121.7229 394.47186Q1121.5979 394.175 1121.5979 393.22186L1121.5979 389.64374L1120.8323 389.64374L1120.8323 388.83124L1121.5979 388.83124L1121.5979 387.28436L1122.6448 386.65936L1122.6448 388.83124L1123.7073 388.83124L1123.7073 389.64374L1122.6448 389.64374L1122.6448 393.28436Q1122.6448 393.7375 1122.6917 393.8625Q1122.7542 393.9875 1122.8792 394.0656Q1123.0042 394.14374 1123.2385 394.14374Q1123.426 394.14374 1123.7073 394.1125Z" fill-rule="nonzero"/><path fill="#000000" d="M1150.5206 395.05L1150.5206 389.64374L1149.5831 389.64374L1149.5831 388.83124L1150.5206 388.83124L1150.5206 388.15936Q1150.5206 387.53436 1150.63 387.2375Q1150.7863 386.8156 1151.1613 386.5656Q1151.5519 386.3156 1152.2394 386.3156Q1152.6925 386.3156 1153.2238 386.425L1153.0675 387.33124Q1152.7394 387.28436 1152.4425 387.28436Q1151.9581 387.28436 1151.755 387.4875Q1151.5675 387.6906 1151.5675 388.2531L1151.5675 388.83124L1152.7863 388.83124L1152.7863 389.64374L1151.5675 389.64374L1151.5675 395.05L1150.5206 395.05ZM1153.2706 387.675L1153.2706 386.45624L1154.3331 386.45624L1154.3331 387.675L1153.2706 387.675ZM1153.2706 395.05L1153.2706 388.83124L1154.3331 388.83124L1154.3331 395.05L1153.2706 395.05Z" fill-rule="nonzero"/><path fill="#000000" d="M1178.131 395.05L1178.131 388.83124L1179.0685 388.83124L1179.0685 389.70624Q1179.3654 389.2375 1179.8497 388.97186Q1180.3341 388.6906 1180.9591 388.6906Q1181.6466 388.6906 1182.0841 388.97186Q1182.5372 389.2531 1182.7091 389.76874Q1183.4591 388.6906 1184.631 388.6906Q1185.5685 388.6906 1186.0529 389.20624Q1186.5529 389.70624 1186.5529 390.78436L1186.5529 395.05L1185.506 395.05L1185.506 391.1281Q1185.506 390.5031 1185.3966 390.22186Q1185.3029 389.9406 1185.0372 389.76874Q1184.7716 389.59686 1184.3966 389.59686Q1183.7404 389.59686 1183.3029 390.03436Q1182.881 390.47186 1182.881 391.4406L1182.881 395.05L1181.8185 395.05L1181.8185 391.0031Q1181.8185 390.3 1181.5529 389.95624Q1181.3029 389.59686 1180.7247 389.59686Q1180.2716 389.59686 1179.8966 389.83124Q1179.5216 390.0656 1179.3497 390.51874Q1179.1779 390.97186 1179.1779 391.8156L1179.1779 395.05L1178.131 395.05ZM1193.1622 395.05L1193.1622 394.26874Q1192.5685 395.1906 1191.4279 395.1906Q1190.6779 395.1906 1190.0529 394.78436Q1189.4279 394.3625 1189.0841 393.6281Q1188.7404 392.89374 1188.7404 391.9406Q1188.7404 391.01874 1189.0529 390.2531Q1189.3654 389.4875 1189.9904 389.09686Q1190.6154 388.6906 1191.381 388.6906Q1191.9435 388.6906 1192.381 388.925Q1192.8185 389.15936 1193.0997 389.53436L1193.0997 386.45624L1194.1466 386.45624L1194.1466 395.05L1193.1622 395.05ZM1189.8341 391.9406Q1189.8341 393.14374 1190.3341 393.7375Q1190.8341 394.3156 1191.5216 394.3156Q1192.2091 394.3156 1192.6935 393.7531Q1193.1779 393.1906 1193.1779 392.03436Q1193.1779 390.7531 1192.6779 390.15936Q1192.1935 389.5656 1191.4747 389.5656Q1190.7716 389.5656 1190.3029 390.14374Q1189.8341 390.70624 1189.8341 391.9406Z" fill-rule="nonzero"/><path fill="#000000" d="M1213.9912 395.05L1213.9912 386.45624L1215.0381 386.45624L1215.0381 389.53436Q1215.7725 388.6906 1216.8975 388.6906Q1217.6006 388.6906 1218.1006 388.97186Q1218.6162 389.2375 1218.835 389.72186Q1219.0537 390.1906 1219.0537 391.1125L1219.0537 395.05L1218.0068 395.05L1218.0068 391.1125Q1218.0068 390.3156 1217.6631 389.95624Q1217.3193 389.59686 1216.6943 389.59686Q1216.2256 389.59686 1215.8037 389.84686Q1215.3975 390.08124 1215.21 390.5031Q1215.0381 390.90936 1215.0381 391.64374L1215.0381 395.05L1213.9912 395.05ZM1225.0693 395.05L1225.0693 394.1281Q1224.335 395.1906 1223.085 395.1906Q1222.5381 395.1906 1222.0537 394.9875Q1221.585 394.76874 1221.3506 394.45624Q1221.1162 394.1281 1221.0225 393.65936Q1220.96 393.3625 1220.96 392.675L1220.96 388.83124L1222.0225 388.83124L1222.0225 392.28436Q1222.0225 393.09686 1222.085 393.39374Q1222.1787 393.8 1222.4912 394.05Q1222.8193 394.28436 1223.3037 394.28436Q1223.7725 394.28436 1224.1787 394.05Q1224.6006 393.8 1224.7725 393.3781Q1224.96 392.95624 1224.96 392.15936L1224.96 388.83124L1226.0068 388.83124L1226.0068 395.05L1225.0693 395.05Z" fill-rule="nonzero"/><path fill="#757575" d="M22.48125 39.95L22.48125 25.6375L24.41875 25.6375L31.934376 36.871876L31.934376 25.6375L33.746876 25.6375L33.746876 39.95L31.809376 39.95L24.29375 28.7L24.29375 39.95L22.48125 39.95ZM42.371876 36.60625L44.184376 36.840626Q43.7625 38.41875 42.590626 39.309376Q41.434376 40.184376 39.621876 40.184376Q37.35625 40.184376 36.0125 38.79375Q34.684376 37.3875 34.684376 34.85625Q34.684376 32.23125 36.028126 30.79375Q37.371876 29.340626 39.528126 29.340626Q41.60625 29.340626 42.91875 30.7625Q44.246876 32.16875 44.246876 34.746876Q44.246876 34.903126 44.23125 35.215626L36.496876 35.215626Q36.590626 36.91875 37.465626 37.825Q38.340626 38.73125 39.6375 38.73125Q40.60625 38.73125 41.278126 38.23125Q41.965626 37.715626 42.371876 36.60625ZM36.590626 33.7625L42.3875 33.7625Q42.278126 32.465626 41.73125 31.809376Q40.8875 30.79375 39.54375 30.79375Q38.340626 30.79375 37.5125 31.60625Q36.684376 32.403126 36.590626 33.7625ZM50.10625 38.371876L50.35625 39.934376Q49.621876 40.090626 49.028126 40.090626Q48.075 40.090626 47.54375 39.79375Q47.028126 39.48125 46.809376 38.996876Q46.590626 38.496876 46.590626 36.91875L46.590626 30.95L45.309376 30.95L45.309376 29.575L46.590626 29.575L46.590626 27.0125L48.340626 25.95L48.340626 29.575L50.10625 29.575L50.10625 30.95L48.340626 30.95L48.340626 37.0125Q48.340626 37.7625 48.434376 37.98125Q48.528126 38.184376 48.73125 38.325Q48.95 38.45 49.340626 38.45Q49.621876 38.45 50.10625 38.371876ZM58.528126 39.95L58.528126 25.6375L64.87187 25.6375Q66.77812 25.6375 67.77812 26.028126Q68.77812 26.403126 69.37187 27.3875Q69.96562 28.35625 69.96562 29.54375Q69.96562 31.059376 68.98125 32.10625Q67.99687 33.153126 65.93437 33.434376Q66.68437 33.79375 67.075 34.153126Q67.90312 34.903126 68.65312 36.059376L71.1375 39.95L68.7625 39.95L66.85625 36.965626Q66.02812 35.684376 65.49687 34.996876Q64.96562 34.309376 64.52812 34.04375Q64.10625 33.7625 63.66875 33.653126Q63.340626 33.590626 62.621876 33.590626L60.41875 33.590626L60.41875 39.95L58.528126 39.95ZM60.41875 31.95L64.49687 31.95Q65.79375 31.95 66.5125 31.684376Q67.24687 31.41875 67.62187 30.825Q68.0125 30.23125 68.0125 29.54375Q68.0125 28.528126 67.27812 27.871876Q66.54375 27.215626 64.95 27.215626L60.41875 27.215626L60.41875 31.95ZM76.1375 39.95L76.1375 27.325L71.41875 27.325L71.41875 25.6375L82.7625 25.6375L82.7625 27.325L78.02812 27.325L78.02812 39.95L76.1375 39.95ZM88.1375 39.95L88.1375 27.325L83.41875 27.325L83.41875 25.6375L94.7625 25.6375L94.7625 27.325L90.02812 27.325L90.02812 39.95L88.1375 39.95ZM102.68437 39.95L102.68437 30.95L101.1375 30.95L101.1375 29.575L102.68437 29.575L102.68437 28.48125Q102.68437 27.434376 102.87187 26.91875Q103.12187 26.23125 103.7625 25.809376Q104.40312 25.3875 105.55937 25.3875Q106.30937 25.3875 107.2 25.559376L106.93437 27.090626Q106.3875 26.996876 105.90312 26.996876Q105.10625 26.996876 104.7625 27.340626Q104.43437 27.684376 104.43437 28.621876L104.43437 29.575L106.46562 29.575L106.46562 30.95L104.43437 30.95L104.43437 39.95L102.68437 39.95ZM108.24687 39.95L108.24687 29.575L109.825 29.575L109.825 31.153126Q110.43437 30.04375 110.95 29.7Q111.46562 29.340626 112.075 29.340626Q112.96562 29.340626 113.8875 29.903126L113.27812 31.54375Q112.6375 31.153126 111.99687 31.153126Q111.41875 31.153126 110.95 31.5125Q110.49687 31.85625 110.29375 32.465626Q110.0125 33.403126 110.0125 34.5125L110.0125 39.95L108.24687 39.95ZM114.62187 34.7625Q114.62187 31.8875 116.21562 30.496876Q117.55937 29.340626 119.48125 29.340626Q121.62187 29.340626 122.96562 30.746876Q124.325 32.153126 124.325 34.621876Q124.325 36.621876 123.73125 37.778126Q123.1375 38.91875 121.98125 39.559376Q120.84062 40.184376 119.48125 40.184376Q117.29375 40.184376 115.95 38.79375Q114.62187 37.3875 114.62187 34.7625ZM116.41875 34.7625Q116.41875 36.7625 117.27812 37.746876Q118.15312 38.73125 119.48125 38.73125Q120.79375 38.73125 121.65312 37.746876Q122.52812 36.746876 122.52812 34.7Q122.52812 32.778126 121.65312 31.79375Q120.77812 30.79375 119.48125 30.79375Q118.15312 30.79375 117.27812 31.79375Q116.41875 32.778126 116.41875 34.7625ZM126.2625 39.95L126.2625 29.575L127.84062 29.575L127.84062 31.028126Q128.325 30.278126 129.1375 29.809376Q129.95 29.340626 130.98125 29.340626Q132.1375 29.340626 132.87187 29.825Q133.60625 30.29375 133.91875 31.153126Q135.15312 29.340626 137.12187 29.340626Q138.66875 29.340626 139.49687 30.2Q140.325 31.059376 140.325 32.825L140.325 39.95L138.575 39.95L138.575 33.41875Q138.575 32.35625 138.40312 31.903126Q138.23125 31.434376 137.77812 31.153126Q137.34062 30.871876 136.73125 30.871876Q135.6375 30.871876 134.90312 31.60625Q134.18437 32.325 134.18437 33.91875L134.18437 39.95L132.43437 39.95L132.43437 33.215626Q132.43437 32.04375 131.99687 31.465626Q131.575 30.871876 130.59062 30.871876Q129.85625 30.871876 129.21562 31.2625Q128.59062 31.653126 128.30937 32.403126Q128.02812 33.153126 128.02812 34.575L128.02812 39.95L126.2625 39.95ZM147.85625 35.35625L149.6375 35.2Q149.7625 36.2625 150.21562 36.95Q150.68437 37.6375 151.65312 38.075Q152.6375 38.496876 153.87187 38.496876Q154.95 38.496876 155.77812 38.184376Q156.60625 37.85625 157.0125 37.29375Q157.41875 36.73125 157.41875 36.059376Q157.41875 35.3875 157.02812 34.8875Q156.6375 34.3875 155.74687 34.04375Q155.16875 33.809376 153.18437 33.340626Q151.21562 32.871876 150.43437 32.45Q149.40312 31.91875 148.90312 31.121876Q148.40312 30.325 148.40312 29.340626Q148.40312 28.246876 149.0125 27.309376Q149.62187 26.371876 150.80937 25.8875Q151.99687 25.3875 153.43437 25.3875Q155.02812 25.3875 156.24687 25.903126Q157.46562 26.41875 158.10625 27.41875Q158.7625 28.403126 158.80937 29.66875L156.99687 29.809376Q156.85625 28.45 156.0125 27.7625Q155.16875 27.059376 153.5125 27.059376Q151.79375 27.059376 150.99687 27.7Q150.21562 28.325 150.21562 29.2Q150.21562 29.98125 150.77812 30.48125Q151.325 30.98125 153.6375 31.496876Q155.95 32.0125 156.80937 32.403126Q158.05937 32.98125 158.65312 33.871876Q159.24687 34.746876 159.24687 35.903126Q159.24687 37.04375 158.59062 38.059376Q157.93437 39.075 156.7 39.6375Q155.48125 40.2 153.95 40.2Q152.0125 40.2 150.7 39.6375Q149.3875 39.059376 148.6375 37.91875Q147.8875 36.778126 147.85625 35.35625ZM161.18437 43.95L160.99687 42.29375Q161.575 42.45 161.99687 42.45Q162.59062 42.45 162.93437 42.246876Q163.29375 42.059376 163.5125 41.715626Q163.68437 41.45 164.05937 40.403126Q164.10625 40.246876 164.21562 39.965626L160.27812 29.575L162.16875 29.575L164.325 35.590626Q164.74687 36.73125 165.075 37.98125Q165.3875 36.778126 165.79375 35.621876L168.0125 29.575L169.77812 29.575L165.825 40.121876Q165.2 41.840626 164.84062 42.48125Q164.37187 43.35625 163.7625 43.746876Q163.16875 44.153126 162.325 44.153126Q161.80937 44.153126 161.18437 43.95ZM177.99687 39.95L177.99687 38.6375Q177.0125 40.184376 175.09062 40.184376Q173.85625 40.184376 172.80937 39.496876Q171.77812 38.809376 171.2 37.590626Q170.6375 36.371876 170.6375 34.778126Q170.6375 33.215626 171.15312 31.95Q171.66875 30.684376 172.7 30.0125Q173.74687 29.340626 175.0125 29.340626Q175.95 29.340626 176.68437 29.746876Q177.41875 30.1375 177.8875 30.7625L177.8875 25.6375L179.62187 25.6375L179.62187 39.95L177.99687 39.95ZM172.43437 34.778126Q172.43437 36.7625 173.27812 37.746876Q174.12187 38.73125 175.2625 38.73125Q176.41875 38.73125 177.21562 37.79375Q178.02812 36.85625 178.02812 34.91875Q178.02812 32.79375 177.2 31.79375Q176.3875 30.79375 175.18437 30.79375Q174.0125 30.79375 173.21562 31.7625Q172.43437 32.715626 172.43437 34.778126ZM182.2625 39.95L182.2625 29.575L183.85625 29.575L183.85625 31.059376Q184.99687 29.340626 187.15312 29.340626Q188.09062 29.340626 188.87187 29.684376Q189.66875 30.0125 190.05937 30.559376Q190.45 31.10625 190.60625 31.85625Q190.7 32.35625 190.7 33.575L190.7 39.95L188.93437 39.95L188.93437 33.6375Q188.93437 32.559376 188.73125 32.028126Q188.52812 31.496876 187.99687 31.184376Q187.48125 30.871876 186.77812 30.871876Q185.65312 30.871876 184.84062 31.590626Q184.02812 32.29375 184.02812 34.278126L184.02812 39.95L182.2625 39.95ZM199.37187 36.60625L201.18437 36.840626Q200.7625 38.41875 199.59062 39.309376Q198.43437 40.184376 196.62187 40.184376Q194.35625 40.184376 193.0125 38.79375Q191.68437 37.3875 191.68437 34.85625Q191.68437 32.23125 193.02812 30.79375Q194.37187 29.340626 196.52812 29.340626Q198.60625 29.340626 199.91875 30.7625Q201.24687 32.16875 201.24687 34.746876Q201.24687 34.903126 201.23125 35.215626L193.49687 35.215626Q193.59062 36.91875 194.46562 37.825Q195.34062 38.73125 196.6375 38.73125Q197.60625 38.73125 198.27812 38.23125Q198.96562 37.715626 199.37187 36.60625ZM193.59062 33.7625L199.3875 33.7625Q199.27812 32.465626 198.73125 31.809376Q197.8875 30.79375 196.54375 30.79375Q195.34062 30.79375 194.5125 31.60625Q193.68437 32.403126 193.59062 33.7625ZM203.18437 43.95L202.99687 42.29375Q203.575 42.45 203.99687 42.45Q204.59062 42.45 204.93437 42.246876Q205.29375 42.059376 205.5125 41.715626Q205.68437 41.45 206.05937 40.403126Q206.10625 40.246876 206.21562 39.965626L202.27812 29.575L204.16875 29.575L206.325 35.590626Q206.74687 36.73125 207.075 37.98125Q207.3875 36.778126 207.79375 35.621876L210.0125 29.575L211.77812 29.575L207.825 40.121876Q207.2 41.840626 206.84062 42.48125Q206.37187 43.35625 205.7625 43.746876Q205.16875 44.153126 204.325 44.153126Q203.80937 44.153126 203.18437 43.95ZM213.73125 39.95L213.73125 37.95L215.73125 37.95L215.73125 39.95Q215.73125 41.059376 215.34062 41.73125Q214.95 42.41875 214.10625 42.778126L213.60625 42.028126Q214.16875 41.79375 214.43437 41.309376Q214.7 40.840626 214.73125 39.95L213.73125 39.95ZM223.91875 39.95L229.41875 25.6375L231.46562 25.6375L237.325 39.95L235.16875 39.95L233.49687 35.60625L227.5125 35.60625L225.93437 39.95L223.91875 39.95ZM228.05937 34.075L232.90312 34.075L231.41875 30.10625Q230.73125 28.29375 230.40312 27.1375Q230.12187 28.5125 229.62187 29.871876L228.05937 34.075ZM247.8875 25.6375L249.77812 25.6375L249.77812 33.903126Q249.77812 36.059376 249.29375 37.340626Q248.80937 38.60625 247.52812 39.403126Q246.2625 40.2 244.18437 40.2Q242.16875 40.2 240.8875 39.5125Q239.62187 38.809376 239.075 37.496876Q238.52812 36.184376 238.52812 33.903126L238.52812 25.6375L240.41875 25.6375L240.41875 33.8875Q240.41875 35.7625 240.7625 36.653126Q241.10625 37.528126 241.95 38.0125Q242.79375 38.48125 244.02812 38.48125Q246.10625 38.48125 246.99687 37.54375Q247.8875 36.590626 247.8875 33.8875L247.8875 25.6375Z" fill-rule="nonzero"/></svg>